<?xml version="1.0" encoding="UTF-8"?>
<svg width="95px" height="70px" viewBox="0 0 95 70" version="1.1" xmlns="http://www.w3.org/2000/svg" xmlns:xlink="http://www.w3.org/1999/xlink">
    <!-- Generator: Sketch 52.4 (67378) - http://www.bohemiancoding.com/sketch -->
    <title>box-open-light</title>
    <desc>Created with Sketch.</desc>
    <g id="box-open-light" stroke="none" stroke-width="1" fill="none" fill-rule="evenodd">
        <g fill="#0042c6" fill-rule="nonzero" id="Shape">
            <path d="M94.6948775,17.4298441 L87.0712695,1.40311804 C86.6503341,0.530066815 85.8084633,0 84.9042316,0 C84.8106904,0 47.5501114,4.98886414 47.5501114,4.98886414 C47.5501114,4.98886414 10.2895323,0 10.1959911,0 C9.29175947,0 8.44988864,0.545657016 8.02895323,1.40311804 L0.405345212,17.4298441 C-0.280623608,18.8641425 0.452115813,20.5790646 1.90200445,21.0155902 L9.61915367,23.3385301 L9.61915367,56.2806236 C9.61915367,58.5723831 11.1002227,60.5679287 13.2048998,61.1135857 L45.2271715,69.5478842 C47.2538976,70.077951 48.922049,69.7817372 49.8262806,69.5478842 L81.8797327,61.1135857 C83.9844098,60.5523385 85.4654788,58.5567929 85.4654788,56.2806236 L85.4654788,23.3385301 L93.1826281,21.0155902 C94.6481069,20.5790646 95.3652561,18.8641425 94.6948775,17.4298441 Z M11.5367483,5.19153675 L39.7394209,8.97995546 L30.8374165,24.5389755 L5.90868597,17.0400891 L11.5367483,5.19153675 Z M14.3741648,24.7728285 C32.6302895,30.2605791 31.4142539,29.9331849 31.8975501,29.9331849 C32.7394209,29.9331849 33.5345212,29.481069 33.9710468,28.701559 L45.1804009,9.13585746 L45.1804009,64.3875278 L14.3741648,56.2806236 L14.3741648,24.7728285 Z M80.7260579,56.2806236 L49.9198218,64.3875278 L49.9198218,9.12026726 L61.1291759,28.6859688 C61.5812918,29.4654788 62.376392,29.9175947 63.2026726,29.9175947 C63.6859688,29.9175947 62.4231626,30.2449889 80.7260579,24.7572383 L80.7260579,56.2806236 Z M64.2783964,24.5233853 L55.376392,8.96436526 L83.5634744,5.19153675 L89.1915367,17.0400891 L64.2783964,24.5233853 Z"></path>
        </g>
    </g>
</svg>
