<?xml version="1.0" encoding="UTF-8"?>
<svg width="88px" height="70px" viewBox="0 0 88 70" version="1.1" xmlns="http://www.w3.org/2000/svg" xmlns:xlink="http://www.w3.org/1999/xlink">
    <!-- Generator: Sketch 52.4 (67378) - http://www.bohemiancoding.com/sketch -->
    <title>clouds-light</title>
    <desc>Created with Sketch.</desc>
    <g id="clouds-light" stroke="none" stroke-width="1" fill="none" fill-rule="evenodd">
        <g fill="#0042c6" fill-rule="nonzero" id="Shape">
            <path d="M74.3339844,41.6035156 C73.8007812,35.4648438 68.6328125,30.625 62.34375,30.625 C61.3730469,30.625 60.4296875,30.7753906 59.5136719,30.9941406 C60.59375,28.9023437 61.25,26.5644531 61.25,24.0625 C61.25,15.6132812 54.3867188,8.75 45.9375,8.75 C44.5019531,8.75 43.0800781,8.95507812 41.6992188,9.36523438 C38.6914062,3.69140625 32.7304688,0 26.25,0 C17.8007812,0 10.6914062,6.00195312 9.14648438,14.1914062 C3.75976563,15.8046875 0,20.7539062 0,26.4960938 C0,33.6054688 5.78320312,39.375 12.8789062,39.375 L26.578125,39.375 C26.359375,40.4414062 26.25,41.5351562 26.25,42.65625 L26.25,42.7109375 C21.0136719,44.8984375 17.5,50.0253906 17.5,55.78125 C17.5,63.6152344 23.8847656,70 31.71875,70 L73.28125,70 C81.1152344,70 87.5,63.6152344 87.5,55.78125 C87.5,48.2890625 81.6757812,42.1367188 74.3339844,41.6035156 Z M12.8789063,35 C8.18945312,35 4.375,31.1855469 4.375,26.4960938 C4.375,22.3535156 7.35546875,18.8398438 11.4570312,18.1425781 L13.0976562,17.8691406 L13.2617188,16.2148438 C13.9453125,9.4609375 19.5234375,4.375 26.25,4.375 C31.6503906,4.375 36.5722656,7.79296875 38.5,12.8925781 L39.3203125,15.0800781 L41.4394531,14.1230469 C42.8886719,13.4667969 44.40625,13.125 45.9375,13.125 C51.9667969,13.125 56.875,18.0332031 56.875,24.0625 C56.875,26.7832031 55.8632813,29.2714844 54.1816406,31.1992188 C51.1464844,28.1230469 47.0722656,26.25 42.65625,26.25 C36.3945312,26.25 30.9941406,29.8183594 28.2324219,35 L12.8789063,35 Z M73.28125,65.625 L31.71875,65.625 C26.2910156,65.625 21.875,61.2089844 21.875,55.78125 C21.875,51.3652344 24.8691406,47.4824219 29.1621094,46.3203125 L30.9804688,45.828125 L30.7070312,43.4765625 C30.6660156,43.203125 30.625,42.9296875 30.625,42.65625 C30.625,36.0253906 36.0253906,30.625 42.65625,30.625 C47.0585938,30.625 51.1054688,33.0722656 53.2109375,37.0234375 L54.6601562,39.7304688 L56.7382812,37.4746094 C58.2148438,35.875 60.2109375,35 62.34375,35 C66.5683594,35 70,38.4316406 70,42.65625 C70,42.875 69.9589844,43.0800781 69.890625,43.5996094 L69.5488281,46.3339844 L72.7617188,46.0058594 C72.9257813,45.9785156 73.1035156,45.9511719 73.28125,45.9511719 C78.7089844,45.9511719 83.125,50.3671875 83.125,55.7949219 C83.125,61.2226562 78.7089844,65.625 73.28125,65.625 Z"></path>
        </g>
    </g>
</svg>
