<?xml version="1.0" encoding="UTF-8"?>
<svg width="100px" height="70px" viewBox="0 0 100 70" version="1.1" xmlns="http://www.w3.org/2000/svg" xmlns:xlink="http://www.w3.org/1999/xlink">
    <!-- Generator: Sketch 52.4 (67378) - http://www.bohemiancoding.com/sketch -->
    <title>cloud audits</title>
    <desc>Created with Sketch.</desc>
    <g id="landing" stroke="none" stroke-width="1" fill="none" fill-rule="evenodd">
        <g transform="translate(-1356.000000, -3126.000000)" fill-rule="nonzero" id="Services">
            <g transform="translate(0.000000, 2700.000000)">
                <g id="Cloud-audits" transform="translate(1055.000000, 409.000000)">
                    <g id="cloud-audits" transform="translate(301.000000, 17.000000)">
                        <g id="cloud-upload-light" fill="#5C5C5C">
                            <path d="M89.328125,32.1401667 C89.765625,30.6015417 90,29.00075 90,27.3533333 C90,17.7330417 82.171875,9.94666667 72.5,9.94666667 C69.890625,9.94666667 67.359375,10.5061667 65,11.6251667 C60.0625,4.63141667 51.828125,0 42.5,0 C27.75,0 15.671875,11.5785417 15.03125,26.1410833 C6.125,29.2494167 0,37.6574583 0,47.2466667 C0,59.6178333 10.0625,69.6266667 22.5,69.6266667 L80,69.6266667 C91.046875,69.6266667 100,60.7368333 100,49.7333333 C100,42.42875 95.96875,35.6215 89.328125,32.1401667 Z M80,64.6533333 L22.5,64.6533333 C12.828125,64.6533333 5,56.8669583 5,47.2466667 C5,38.419 11.59375,31.1299583 20.15625,29.9954167 C20.046875,29.1250833 20,28.2392083 20,27.3533333 C20,14.9977083 30.078125,4.97333333 42.5,4.97333333 C51.921875,4.97333333 59.984375,10.72375 63.34375,18.8986667 C65.625,16.458625 68.875,14.92 72.5,14.92 C79.40625,14.92 85,20.4839167 85,27.3533333 C85,30.2285417 84.015625,32.8861667 82.359375,34.9998333 C89.53125,36.1188333 95,42.288875 95,49.7333333 C95,57.9704167 88.28125,64.6533333 80,64.6533333 Z" id="Shape"></path>
                        </g>
                        <g id="search-regular" transform="translate(32.756410, 20.084615)" fill="#0042c6">
                            <path d="M34.2482006,31.4126517 L26.0717374,23.2797962 C25.9168291,23.1257141 25.7147748,23.0453235 25.4992503,23.0453235 L24.6102114,23.0453235 C26.7317814,20.6001075 28.0181936,17.417977 28.0181936,13.9343816 C28.0181936,6.23697563 21.7477758,0 14.0090968,0 C6.27041785,0 0,6.23697563 0,13.9343816 C0,21.6317876 6.27041785,27.8687633 14.0090968,27.8687633 C17.511371,27.8687633 20.7105638,26.5892119 23.1688909,24.478957 L23.1688909,25.3632543 C23.1688909,25.5776294 23.2564477,25.778606 23.4046209,25.9326881 L31.5810841,34.0655436 C31.8976358,34.380407 32.4095067,34.380407 32.7260584,34.0655436 L34.2482006,32.5515194 C34.5647523,32.236656 34.5647523,31.7275151 34.2482006,31.4126517 Z M14.0090968,24.6531367 C8.05523067,24.6531367 3.2328685,19.8564938 3.2328685,13.9343816 C3.2328685,8.01226944 8.05523067,3.21562653 14.0090968,3.21562653 C19.962963,3.21562653 24.7853251,8.01226944 24.7853251,13.9343816 C24.7853251,19.8564938 19.962963,24.6531367 14.0090968,24.6531367 Z" id="Shape"></path>
                        </g>
                    </g>
                </g>
            </g>
        </g>
    </g>
</svg>
