<?xml version="1.0" encoding="UTF-8"?>
<svg width="100px" height="70px" viewBox="0 0 100 70" version="1.1" xmlns="http://www.w3.org/2000/svg" xmlns:xlink="http://www.w3.org/1999/xlink">
    <!-- Generator: Sketch 52.4 (67378) - http://www.bohemiancoding.com/sketch -->
    <title>cloud-upload-light</title>
    <desc>Created with Sketch.</desc>
    <g id="landing" stroke="none" stroke-width="1" fill="none" fill-rule="evenodd">
        <g transform="translate(-755.000000, -3137.000000)" fill-rule="nonzero" id="Services">
            <g transform="translate(0.000000, 2700.000000)">
                <g id="cloud-upload-light" transform="translate(755.000000, 437.000000)">
                    <path d="M89.328125,32.1401667 C89.765625,30.6015417 90,29.00075 90,27.3533333 C90,17.7330417 82.171875,9.94666667 72.5,9.94666667 C69.890625,9.94666667 67.359375,10.5061667 65,11.6251667 C60.0625,4.63141667 51.828125,0 42.5,0 C27.75,0 15.671875,11.5785417 15.03125,26.1410833 C6.125,29.2494167 0,37.6574583 0,47.2466667 C0,59.6178333 10.0625,69.6266667 22.5,69.6266667 L80,69.6266667 C91.046875,69.6266667 100,60.7368333 100,49.7333333 C100,42.42875 95.96875,35.6215 89.328125,32.1401667 Z M80,64.6533333 L22.5,64.6533333 C12.828125,64.6533333 5,56.8669583 5,47.2466667 C5,38.419 11.59375,31.1299583 20.15625,29.9954167 C20.046875,29.1250833 20,28.2392083 20,27.3533333 C20,14.9977083 30.078125,4.97333333 42.5,4.97333333 C51.921875,4.97333333 59.984375,10.72375 63.34375,18.8986667 C65.625,16.458625 68.875,14.92 72.5,14.92 C79.40625,14.92 85,20.4839167 85,27.3533333 C85,30.2285417 84.015625,32.8861667 82.359375,34.9998333 C89.53125,36.1188333 95,42.288875 95,49.7333333 C95,57.9704167 88.28125,64.6533333 80,64.6533333 Z" id="Shape" fill="#5C5C5C"></path>
                    <path d="M48.828125,21.214375 C48.09375,20.4839167 46.90625,20.4839167 46.171875,21.214375 L30.8125,36.4918333 C30.078125,37.2222917 30.078125,38.4034583 30.8125,39.1339167 L31.703125,40.0197917 C32.4375,40.75025 33.625,40.75025 34.359375,40.0197917 L45.015625,29.420375 L45.015625,52.8416667 C45.015625,53.8674167 45.859375,54.7066667 46.890625,54.7066667 L48.140625,54.7066667 C49.171875,54.7066667 50.015625,53.8674167 50.015625,52.8416667 L50.015625,29.420375 L60.671875,40.0197917 C61.40625,40.75025 62.59375,40.75025 63.328125,40.0197917 L64.21875,39.1339167 C64.953125,38.4034583 64.953125,37.2222917 64.21875,36.4918333 L48.828125,21.214375 Z" id="Path" fill="#0042c6"></path>
                </g>
            </g>
        </g>
    </g>
</svg>
