<?xml version="1.0" encoding="UTF-8"?>
<svg width="68px" height="70px" viewBox="0 0 68 70" version="1.1" xmlns="http://www.w3.org/2000/svg" xmlns:xlink="http://www.w3.org/1999/xlink">
    <!-- Generator: Sketch 52.4 (67378) - http://www.bohemiancoding.com/sketch -->
    <title>cog-light</title>
    <desc>Created with Sketch.</desc>
    <g id="cog-light" stroke="none" stroke-width="1" fill="none" fill-rule="evenodd">
        <g fill="#0042c6" fill-rule="nonzero" id="Shape">
            <path d="M65.7232258,41.1075 L61.1210081,38.4504637 C61.4103228,36.1592043 61.4103228,33.8406546 61.1210081,31.5493952 L65.7232258,28.8923589 C67.0746774,28.1121976 67.7265524,26.506996 67.2821371,25.0111694 C65.6995161,19.6836895 62.8824395,14.8882661 59.1622782,10.9554234 C58.0848992,9.8165121 56.3655242,9.56727823 55.0078629,10.3511089 L50.4124194,13.0040524 C48.574275,11.6051461 46.5665921,10.4443233 44.4371573,9.54921371 L44.4371573,4.24078629 C44.4371573,2.67002016 43.3572379,1.3047379 41.8285282,0.943024194 C36.5158669,-0.314294355 30.9449395,-0.314435484 25.6311492,0.943024194 C24.1025806,1.3047379 23.0225202,2.66987903 23.0225202,4.24078629 L23.0225202,9.54921371 C20.8930692,10.4442907 18.8853823,11.6051158 17.0472581,13.0040524 L12.4518145,10.3511089 C11.0940121,9.56727823 9.3746371,9.8165121 8.29739919,10.9554234 C4.5772379,14.8882661 1.76016129,19.6838306 0.177540323,25.0111694 C-0.266875,26.506996 0.385,28.1120565 1.73645161,28.8923589 L6.33866935,31.5493952 C6.04935467,33.8406546 6.04935467,36.1592043 6.33866935,38.4504637 L1.73645161,41.1075 C0.385,41.8876613 -0.266875,43.4928629 0.177540323,44.9886895 C1.76016129,50.3160282 4.5772379,55.1115927 8.29739919,59.0444355 C9.37477823,60.1833468 11.0941532,60.4325806 12.4518145,59.6488911 L17.0472581,56.9959476 C18.8853723,58.3948613 20.8930623,59.5556408 23.0225202,60.4506452 L23.0225202,65.7590726 C23.0225202,67.3298387 24.1024395,68.695121 25.6311492,69.0568347 C30.9439516,70.3141532 36.5147379,70.3142944 41.8285282,69.0568347 C43.3570968,68.695121 44.4371573,67.3299798 44.4371573,65.7590726 L44.4371573,60.4506452 C46.566576,59.5555621 48.5742564,58.3947882 50.4124194,56.9959476 L55.0078629,59.6488911 C56.3655242,60.4327218 58.0848992,60.1834879 59.1622782,59.0444355 C62.8824395,55.1115927 65.6995161,50.3160282 67.2821371,44.9886895 C67.7265524,43.4928629 67.0746774,41.8878024 65.7232258,41.1075 Z M56.4822379,55.2854637 L49.9466935,51.5116734 C46.1379032,54.7676613 44.7871573,55.5869153 39.9210282,57.3062903 L39.9210282,64.8537298 C35.8365658,65.6962718 31.6231117,65.6962718 27.5386492,64.8537298 L27.5386492,57.3062903 C22.79375,55.6298185 21.42,54.8513508 17.5129839,51.5116734 L10.9774395,55.2854637 C8.19578629,52.1679234 6.08181452,48.5128226 4.77778226,44.5655847 L11.3161492,40.7917944 C10.393871,35.7934274 10.3934476,34.2089718 11.3161492,29.2080645 L4.77778226,25.4342742 C6.08181452,21.4870363 8.19592742,17.8317944 10.9774395,14.7128427 L17.5129839,18.4894556 C21.3766734,15.1822379 22.7436492,14.3875403 27.5386492,12.6934274 L27.5386492,5.14612903 C31.6229678,4.30217827 35.8367097,4.30217827 39.9210282,5.14612903 L39.9210282,12.6935685 C44.7163105,14.3878226 46.0834274,15.1826613 49.9466935,18.4895968 L56.4822379,14.7129839 C59.26375,17.8317944 61.3778629,21.4870363 62.6818952,25.4344153 L56.1435282,29.2082056 C57.0659476,34.2078427 57.0662298,35.7910282 56.1435282,40.7919355 L62.6818952,44.5657258 C61.3778629,48.5128226 59.2638911,52.1680645 56.4822379,55.2854637 Z M33.7298387,21.4516129 C26.2591734,21.4516129 20.1814516,27.5293347 20.1814516,35 C20.1814516,42.4706653 26.2591734,48.5483871 33.7298387,48.5483871 C41.200504,48.5483871 47.2782258,42.4706653 47.2782258,35 C47.2782258,27.5293347 41.200504,21.4516129 33.7298387,21.4516129 Z M33.7298387,44.0322581 C28.7493952,44.0322581 24.6975806,39.9804435 24.6975806,35 C24.6975806,30.0195565 28.7493952,25.9677419 33.7298387,25.9677419 C38.7102823,25.9677419 42.7620968,30.0195565 42.7620968,35 C42.7620968,39.9804435 38.7102823,44.0322581 33.7298387,44.0322581 Z"></path>
        </g>
    </g>
</svg>
