<?xml version="1.0" encoding="UTF-8"?>
<svg width="78px" height="70px" viewBox="0 0 78 70" version="1.1" xmlns="http://www.w3.org/2000/svg" xmlns:xlink="http://www.w3.org/1999/xlink">
    <!-- Generator: Sketch 52.4 (67378) - http://www.bohemiancoding.com/sketch -->
    <title>server-light</title>
    <desc>Created with Sketch.</desc>
    <g id="landing" stroke="none" stroke-width="1" fill="none" fill-rule="evenodd">
        <g transform="translate(-766.000000, -3365.000000)" fill-rule="nonzero" id="Services">
            <g transform="translate(0.000000, 2700.000000)">
                <g id="Group-3" transform="translate(454.000000, 612.000000)">
                    <g id="server-light" transform="translate(312.000000, 53.000000)">
                        <path d="M77.2413793,19.2073563 C77.2413793,21.052463 76.5430388,22.7347573 75.3960345,24.0091954 C76.5430388,25.2836335 77.2413793,26.9659278 77.2413793,28.8110345 L77.2413793,40.8156322 C77.2413793,42.6607389 76.5430388,44.3430332 75.3960345,45.6174713 C76.5430388,46.8919094 77.2413793,48.5742037 77.2413793,50.4193103 L77.2413793,62.423908 C77.2413793,66.4019316 73.9993534,69.6266667 70,69.6266667 L7.24137931,69.6266667 C3.24202586,69.6266667 0,66.4019316 0,62.423908 L0,50.4193103 C0,48.5742037 0.698340517,46.8919094 1.84534483,45.6174713 C0.698340517,44.3430332 0,42.6607389 0,40.8156322 L0,28.8110345 C0,26.9659278 0.698340517,25.2836335 1.84534483,24.0091954 C0.698340517,22.7347573 0,21.052463 0,19.2073563 L0,7.20275862 C0,3.22473506 3.24202586,0 7.24137931,0 L70,0 C73.9993534,0 77.2413793,3.22473506 77.2413793,7.20275862 L77.2413793,19.2073563 Z M4.82758621,19.2073563 C4.82758621,20.5311633 5.91047414,21.6082759 7.24137931,21.6082759 L70,21.6082759 C71.3309052,21.6082759 72.4137931,20.5311633 72.4137931,19.2073563 L72.4137931,7.20275862 C72.4137931,5.87895161 71.3309052,4.80183908 70,4.80183908 L7.24137931,4.80183908 C5.91047414,4.80183908 4.82758621,5.87895161 4.82758621,7.20275862 L4.82758621,19.2073563 Z M70,26.4101149 L7.24137931,26.4101149 C5.91047414,26.4101149 4.82758621,27.4872275 4.82758621,28.8110345 L4.82758621,40.8156322 C4.82758621,42.1394392 5.91047414,43.2165517 7.24137931,43.2165517 L70,43.2165517 C71.3309052,43.2165517 72.4137931,42.1394392 72.4137931,40.8156322 L72.4137931,28.8110345 C72.4137931,27.4872275 71.3309052,26.4101149 70,26.4101149 Z M72.4137931,50.4193103 C72.4137931,49.0955033 71.3309052,48.0183908 70,48.0183908 L7.24137931,48.0183908 C5.91047414,48.0183908 4.82758621,49.0955033 4.82758621,50.4193103 L4.82758621,62.423908 C4.82758621,63.7477151 5.91047414,64.8248276 7.24137931,64.8248276 L70,64.8248276 C71.3309052,64.8248276 72.4137931,63.7477151 72.4137931,62.423908 L72.4137931,50.4193103 Z" id="Shape" fill="#5C5C5C"></path>
                        <path d="M56.7241379,34.8133333 C56.7241379,32.8243216 58.3451509,31.211954 60.3448276,31.211954 C62.3445043,31.211954 63.9655172,32.8243216 63.9655172,34.8133333 C63.9655172,36.8023451 62.3445043,38.4147126 60.3448276,38.4147126 C58.3451509,38.4147126 56.7241379,36.8023451 56.7241379,34.8133333 Z" id="Path" fill="#0042c6"></path>
                        <path d="M50.6896552,38.4147126 C52.6893319,38.4147126 54.3103448,36.8023451 54.3103448,34.8133333 C54.3103448,32.8243216 52.6893319,31.211954 50.6896552,31.211954 C48.6899784,31.211954 47.0689655,32.8243216 47.0689655,34.8133333 C47.0689655,36.8023451 48.6899784,38.4147126 50.6896552,38.4147126 Z" id="Path" fill="#0042c6"></path>
                        <path d="M60.3448276,16.8064368 C62.3445043,16.8064368 63.9655172,15.1940693 63.9655172,13.2050575 C63.9655172,11.2160457 62.3445043,9.60367816 60.3448276,9.60367816 C58.3451509,9.60367816 56.7241379,11.2160457 56.7241379,13.2050575 C56.7241379,15.1940693 58.3451509,16.8064368 60.3448276,16.8064368 Z" id="Path" fill="#0042c6"></path>
                        <path d="M50.6896552,16.8064368 C52.6893319,16.8064368 54.3103448,15.1940693 54.3103448,13.2050575 C54.3103448,11.2160457 52.6893319,9.60367816 50.6896552,9.60367816 C48.6899784,9.60367816 47.0689655,11.2160457 47.0689655,13.2050575 C47.0689655,15.1940693 48.6899784,16.8064368 50.6896552,16.8064368 Z" id="Path" fill="#0042c6"></path>
                        <path d="M60.3448276,52.8202299 C58.3451509,52.8202299 56.7241379,54.4325974 56.7241379,56.4216092 C56.7241379,58.410621 58.3451509,60.0229885 60.3448276,60.0229885 C62.3445043,60.0229885 63.9655172,58.410621 63.9655172,56.4216092 C63.9655172,54.4325974 62.3445043,52.8202299 60.3448276,52.8202299 Z" id="Path" fill="#0042c6"></path>
                        <path d="M50.6896552,52.8202299 C48.6899784,52.8202299 47.0689655,54.4325974 47.0689655,56.4216092 C47.0689655,58.410621 48.6899784,60.0229885 50.6896552,60.0229885 C52.6893319,60.0229885 54.3103448,58.410621 54.3103448,56.4216092 C54.3103448,54.4325974 52.6893319,52.8202299 50.6896552,52.8202299 Z" id="Path" fill="#0042c6"></path>
                    </g>
                </g>
            </g>
        </g>
    </g>
</svg>
