<?xml version="1.0" encoding="UTF-8"?>
<svg width="70px" height="70px" viewBox="0 0 70 70" version="1.1" xmlns="http://www.w3.org/2000/svg" xmlns:xlink="http://www.w3.org/1999/xlink">
    <!-- Generator: Sketch 52.4 (67378) - http://www.bohemiancoding.com/sketch -->
    <title>sync-light</title>
    <desc>Created with Sketch.</desc>
    <g id="landing" stroke="none" stroke-width="1" fill="none" fill-rule="evenodd">
        <g transform="translate(-1375.000000, -3374.000000)" fill-rule="nonzero" id="Services">
            <g transform="translate(0.000000, 2700.000000)">
                <g id="CI/CD" transform="translate(1055.000000, 627.000000)">
                    <g id="sync-light" transform="translate(320.000000, 47.000000)">
                        <path d="M68.3064516,0 L66.8951613,0 C65.9598992,0 65.2016129,0.754242097 65.2016129,1.68451613 L65.2016129,17.2139299 C59.1230444,6.91507909 47.8743548,0 35,0 C16.2620161,0 0.963064516,14.646587 0.04375,33.0576464 C-0.00409274194,34.0147323 0.772681452,34.8133333 1.73602823,34.8133333 L3.14957661,34.8133333 C4.04616935,34.8133333 4.79316532,34.1186108 4.83987903,33.2280633 C5.66731855,17.436988 18.7838508,4.7727957 35,4.7727957 C46.6942339,4.7727957 56.8378831,11.3812928 61.8553024,21.0564516 L45.7258065,21.0564516 C44.7905444,21.0564516 44.0322581,21.8106937 44.0322581,22.7409677 L44.0322581,24.1447312 C44.0322581,25.0750052 44.7905444,25.8292473 45.7258065,25.8292473 L68.3064516,25.8292473 C69.2417137,25.8292473 70,25.0750052 70,24.1447312 L70,1.68451613 C70,0.754242097 69.2417137,0 68.3064516,0 Z" id="Shape" fill="#5C5C5C"></path>
                        <path d="M68.2639718,34.8133333 L66.8505645,34.8133333 C65.9541129,34.8133333 65.2068347,35.5080559 65.1602621,36.3986034 C64.3323992,52.2421795 51.1657661,64.853871 35,64.853871 C23.3416129,64.853871 13.1712903,58.2629209 8.14328629,48.5702151 L24.2741935,48.5702151 C25.2094556,48.5702151 25.9677419,47.815973 25.9677419,46.8856989 L25.9677419,45.4819355 C25.9677419,44.5516615 25.2094556,43.7974194 24.2741935,43.7974194 L1.69354839,43.7974194 C0.75828629,43.7974194 0,44.5516615 0,45.4819355 L0,67.9421505 C0,68.8724246 0.75828629,69.6266667 1.69354839,69.6266667 L3.10483871,69.6266667 C4.04010081,69.6266667 4.7983871,68.8724246 4.7983871,67.9421505 L4.7983871,52.4127367 C10.8769556,62.7115876 22.1257863,69.6266667 35,69.6266667 C53.738125,69.6266667 69.0369355,54.9800797 69.95625,36.5690203 C70.0040927,35.6119344 69.2273185,34.8133333 68.2639718,34.8133333 Z" id="Path" fill="#0042c6"></path>
                    </g>
                </g>
            </g>
        </g>
    </g>
</svg>
