<?xml version="1.0" encoding="UTF-8"?>
<svg width="100px" height="60px" viewBox="0 0 100 60" version="1.1" xmlns="http://www.w3.org/2000/svg" xmlns:xlink="http://www.w3.org/1999/xlink">
    <!-- Generator: Sketch 52.4 (67378) - http://www.bohemiancoding.com/sketch -->
    <title>aws-brands</title>
    <desc>Created with Sketch.</desc>
    <g id="landing" stroke="none" stroke-width="1" fill="none" fill-rule="evenodd">
        <g transform="translate(-1134.000000, -4194.000000)" fill-rule="nonzero" id="Automation">
            <g transform="translate(0.000000, 3608.000000)">
                <g id="logos" transform="translate(637.000000, 586.000000)">
                    <g id="aws-brands" transform="translate(497.000000, 0.000000)">
                        <path d="M28.1984456,21.6464152 C28.0865285,25.1482458 29.846114,26.6989461 29.8896373,27.6837877 C29.8475938,28.0905099 29.6100812,28.451781 29.2523316,28.6531686 L27.2626943,30.0384402 C27.0052119,30.2179753 26.7016835,30.3209322 26.3875648,30.3352841 C26.3207254,30.332192 25.1145078,30.6182135 23.2041451,26.3758191 C20.8421878,29.308318 17.249291,30.9892468 13.4720207,30.928972 C10.9414508,31.0665715 4.08341969,29.5004106 4.43626943,22.238557 C4.18911917,16.3202314 9.73056995,12.6436957 15.461658,12.9544542 C16.565285,12.9575463 18.819171,13.0116585 22.7658031,13.9238351 L22.7658031,11.5088861 C23.1839378,7.41800588 20.480829,4.24394042 15.8005181,4.72012754 C15.4274611,4.7216736 12.7849741,4.64282444 8.67512953,6.28319631 C7.53108808,6.80576529 7.38497409,6.71918581 7.00414508,6.71918581 C5.85233161,6.71918581 6.32642487,3.39824446 6.54715026,2.97771557 C7.35699482,1.98823584 12.1212435,0.14069165 16.7968912,0.166974705 C19.9231835,-0.108027561 23.0327131,0.851647476 25.4533679,2.83856999 C27.4417669,5.05077319 28.4341168,7.97553767 28.2,10.9337511 L28.1984456,21.6464152 Z M14.765285,26.6541103 C19.8062176,26.5814454 21.9404145,23.5666243 22.426943,21.9432592 C22.8093264,20.3894668 22.7455959,19.4061713 22.7455959,17.707049 C21.242487,17.3483626 19.0787565,16.9572089 16.5963731,16.9541168 C14.2414508,16.7778657 9.94041451,17.8245498 10.1082902,21.9417131 C9.91554404,24.5375513 11.8367876,26.796348 14.765285,26.6541103 Z M41.3331606,30.2177834 C40.111399,30.3290999 39.542487,29.4663972 39.3621762,28.614517 L31.6212435,3.15860484 C31.4704663,2.72879958 31.3709845,2.28507976 31.3227979,1.83208357 C31.2633399,1.44319779 31.5318729,1.0799251 31.9227979,1.02040098 C31.9601036,1.01421673 31.5917098,1.02040098 35.3813472,1.02040098 C36.746114,0.884347512 37.1906736,1.95267641 37.3321244,2.62366736 L42.884456,24.3968597 L48.0388601,2.62366736 C48.1212435,2.12583536 48.4958549,0.912176629 50.0284974,1.04049978 L52.6958549,1.04049978 C53.0331606,1.01267066 54.4227979,0.963196678 54.6668394,2.64376616 L59.861658,24.6952497 L65.5927461,2.64376616 C65.6673575,2.30672463 66.015544,0.885893574 67.5637306,1.04049978 L70.6290155,1.04049978 C70.7611399,1.02040098 71.5849741,0.915268753 71.4450777,2.36702105 C71.3782383,2.65304254 71.9751295,0.718918869 63.2455959,28.6346158 C63.0668394,29.4864961 62.4963731,30.3491987 61.2746114,30.2378822 L58.3694301,30.2378822 C56.6689119,30.4156794 56.4248705,28.7443863 56.3984456,28.5758655 L51.2440415,7.37471614 L46.1487047,28.5542206 C46.1238342,28.7227414 45.8797927,30.3940345 44.1777202,30.2162374 L41.3331606,30.2162374 L41.3331606,30.2177834 Z M83.8430052,31.0882164 C82.9290155,31.0897624 78.5704663,31.0418345 74.926943,29.1881061 C74.1846827,28.8755178 73.7053251,28.1484359 73.7129534,27.3467461 L73.7129534,25.6847294 C73.7129534,24.3783069 74.6766839,24.6179466 75.0854922,24.7740988 C76.646114,25.4018 77.6471503,25.8779872 79.5637306,26.2583184 C85.2606218,27.4225032 87.7663212,25.9027241 88.3803109,25.5656826 C90.4243523,24.3582081 90.5860104,21.5953952 89.1963731,20.1621956 C87.5673575,18.8032071 86.7901554,18.752187 80.9378238,16.9154653 C80.2165803,16.7160232 74.1450777,14.8112748 74.1310881,8.82028419 C74.0362694,4.45420486 78.0248705,0.134507401 84.9373057,0.170066829 C86.9067358,0.168520767 92.1544041,0.80859047 93.5751295,2.5850158 C93.7849741,2.90814278 93.8891192,3.28847405 93.8735751,3.67344351 L93.8735751,5.23651228 C93.8735751,5.92296384 93.6217617,6.26618962 93.1165803,6.26618962 C91.9181347,6.13322829 89.7917098,4.53923828 85.4751295,4.60417288 C84.4041451,4.54851465 79.2746114,4.74486453 79.5046632,8.46468991 C79.4378238,11.3960236 83.6409326,12.4952738 84.1212435,12.6220508 C89.788601,14.318081 91.6834197,14.5994643 93.9326425,17.1953025 C96.5968912,20.6352906 95.1606218,24.6627824 94.6088083,25.7666707 C91.6430052,31.5628574 83.9735751,31.0913085 83.8430052,31.0882164 Z" id="Shape" fill="#000000"></path>
                        <path d="M90.0917098,47.3002234 C79.2062176,55.2964565 63.4041451,59.5527654 49.9119171,59.5527654 C31.7068172,59.6721768 14.1152459,53.0140233 0.595336788,40.8871579 C-0.419689119,39.9765273 0.475647668,38.7288552 1.70984456,39.4230371 C16.7074398,47.9559993 33.6878681,52.4394877 50.9658031,52.4285113 C63.8685002,52.3596892 76.6304235,49.7562718 88.5186528,44.7677737 C90.3497409,43.9947426 91.9025907,45.9737021 90.0917098,47.3002234 Z" id="Path" fill="#EC902D"></path>
                        <path d="M94.6290155,42.1533827 C93.2362694,40.3723192 85.4145078,41.3216013 81.9124352,41.737492 C80.8569948,41.8565388 80.6782383,40.9459082 81.6341969,40.2733712 C87.8626943,35.9181143 98.092228,37.1657864 99.2673575,38.6299072 C100.440933,40.094028 98.9487047,50.2887614 93.1181347,55.158857 C92.2227979,55.9117892 91.3663212,55.5144512 91.7642487,54.5249715 C93.0761658,51.2395896 96.0217617,43.9359923 94.6290155,42.1533827 Z" id="Path" fill="#EC902D"></path>
                    </g>
                </g>
            </g>
        </g>
    </g>
</svg>