<?xml version="1.0" encoding="UTF-8"?>
<svg width="72px" height="52px" viewBox="0 0 72 52" version="1.1" xmlns="http://www.w3.org/2000/svg" xmlns:xlink="http://www.w3.org/1999/xlink">
    <!-- Generator: Sketch 52.4 (67378) - http://www.bohemiancoding.com/sketch -->
    <title>docker</title>
    <desc>Created with Sketch.</desc>
    <g id="landing" stroke="none" stroke-width="1" fill="none" fill-rule="evenodd">
        <g id="Artboard" transform="translate(-106.000000, -127.000000)" fill="#000000">
            <g id="docker" transform="translate(106.000000, 127.000000)">
                <path d="M71.1406737,19.6198129 C70.9458019,19.4638129 69.1266968,18.0791735 65.2903972,18.0791735 C64.2774258,18.0836335 63.2665661,18.1712125 62.2676722,18.3410994 C61.5251885,13.2108382 57.3176471,10.7095673 57.1290096,10.5973567 L56.0988436,9.99849513 L55.4213172,10.9840624 C54.5728507,12.3079844 53.9534439,13.7674308 53.5898441,15.3003665 C52.9029663,18.2288889 53.3206637,20.9795166 54.7963801,23.3310721 C53.0143791,24.3321481 50.1557567,24.5785653 49.577275,24.6003587 L2.24906988,24.6003587 C1.01287079,24.6020819 0.00975364505,25.6091384 0.00301659125,26.8552125 C-0.0521870287,31.0348772 0.650276521,35.1896062 2.07581699,39.114846 C3.70618401,43.4249669 6.13172448,46.5998051 9.28738059,48.5427602 C12.8235294,50.725848 18.5686275,51.9733411 25.0809452,51.9733411 C28.0229261,51.9826667 30.9593766,51.7142534 33.8517848,51.1718519 C37.8724987,50.4276335 41.7414781,49.010963 45.2986425,46.9802261 C48.2296631,45.269193 50.8675716,43.0924912 53.1104072,40.533848 C56.8600302,36.2549474 59.093816,31.4894971 60.7550528,27.254386 C60.9777778,27.254386 61.2006033,27.254386 61.417094,27.254386 C65.5224736,27.254386 68.0470588,25.5982924 69.4392157,24.2105107 C70.3644042,23.3253957 71.0866767,22.2471813 71.5553544,21.0512827 L71.849271,20.1843119 L71.1406737,19.6198129 Z" id="Path"></path>
                <path d="M6.63599799,23.2032515 L12.97818,23.2032515 C13.2840623,23.2032515 13.5319256,22.9532865 13.5319256,22.645037 L13.5319256,16.9501754 C13.533635,16.6418246 13.2870789,16.3905419 12.9812971,16.3888187 C12.9802916,16.3888187 12.9791855,16.3888187 12.97818,16.3888187 L6.63599799,16.3888187 C6.33011564,16.3888187 6.08225239,16.6387836 6.08225239,16.9470331 C6.08225239,16.9480468 6.08225239,16.9491618 6.08225239,16.9501754 L6.08225239,22.6449357 C6.08225239,22.9532865 6.33011564,23.2032515 6.63599799,23.2032515" id="Path"></path>
                <path d="M15.3758673,23.2032515 L21.7180493,23.2032515 C22.0239316,23.2032515 22.2717949,22.9532865 22.2717949,22.645037 L22.2717949,16.9501754 C22.2735043,16.6418246 22.0269482,16.3905419 21.7210659,16.3888187 C21.7200603,16.3888187 21.7189542,16.3888187 21.7179487,16.3888187 L15.3757667,16.3888187 C15.068175,16.3888187 14.818904,16.6401014 14.818904,16.9501754 L14.818904,22.6449357 C14.8207139,22.9537934 15.0694822,23.2032515 15.3758673,23.2032515" id="Path"></path>
                <path d="M24.2486677,23.2032515 L30.5908497,23.2032515 C30.896732,23.2032515 31.1445953,22.9532865 31.1445953,22.645037 L31.1445953,16.9501754 C31.1463047,16.6418246 30.8997486,16.3905419 30.5938663,16.3888187 C30.5928607,16.3888187 30.5917547,16.3888187 30.5907491,16.3888187 L24.2485671,16.3888187 C23.9426848,16.3888187 23.6948215,16.6387836 23.6948215,16.9470331 C23.6948215,16.9480468 23.6948215,16.9491618 23.6948215,16.9501754 L23.6948215,22.6449357 C23.6949221,22.9532865 23.9428859,23.2032515 24.2486677,23.2032515" id="Path"></path>
                <path d="M33.0163901,23.2032515 L39.3585721,23.2032515 C39.6649573,23.2032515 39.9137255,22.9538947 39.9154349,22.645037 L39.9154349,16.9501754 C39.9154349,16.6401014 39.6661639,16.3888187 39.3585721,16.3888187 L33.0163901,16.3888187 C32.7105078,16.3888187 32.4626445,16.6387836 32.4626445,16.9470331 C32.4626445,16.9480468 32.4626445,16.9491618 32.4626445,16.9501754 L32.4626445,22.6449357 C32.4626445,22.9532865 32.7106083,23.2032515 33.0163901,23.2032515" id="Path"></path>
                <path d="M15.3758673,15.0103626 L21.7180493,15.0103626 C22.0243338,15.0086394 22.2717949,14.7577622 22.2717949,14.4490058 L22.2717949,8.75424561 C22.2717949,8.44589474 22.0238311,8.19603119 21.7180493,8.19603119 L15.3758673,8.19603119 C15.0695827,8.19603119 14.8207139,8.44538791 14.8190045,8.75424561 L14.8190045,14.4490058 C14.8207139,14.7583704 15.0689794,15.0086394 15.3758673,15.0103626" id="Path"></path>
                <path d="M24.2486677,15.0103626 L30.5908497,15.0103626 C30.8971342,15.0086394 31.1445953,14.7577622 31.1445953,14.4490058 L31.1445953,8.75424561 C31.1445953,8.44589474 30.8966315,8.19603119 30.5908497,8.19603119 L24.2486677,8.19603119 C23.9427853,8.19603119 23.6949221,8.4459961 23.6949221,8.75424561 L23.6949221,14.4490058 C23.6949221,14.7577622 23.9423831,15.0086394 24.2486677,15.0103626" id="Path"></path>
                <path d="M33.0163901,15.0103626 L39.3585721,15.0103626 C39.66546,15.0086394 39.9137255,14.7583704 39.9154349,14.4490058 L39.9154349,8.75424561 C39.9137255,8.44538791 39.6649573,8.19603119 39.3585721,8.19603119 L33.0163901,8.19603119 C32.7105078,8.19603119 32.4626445,8.4459961 32.4626445,8.75424561 L32.4626445,14.4490058 C32.4626445,14.7577622 32.7101056,15.0086394 33.0163901,15.0103626" id="Path"></path>
                <path d="M33.0163901,6.81443275 L39.3585721,6.81443275 C39.6649573,6.81443275 39.9137255,6.56497466 39.9154349,6.25621832 L39.9154349,0.558214425 C39.9137255,0.249356725 39.6649573,0 39.3585721,0 L33.0163901,0 C32.7105078,0 32.4626445,0.249863548 32.4626445,0.558214425 L32.4626445,6.25611696 C32.4626445,6.56446784 32.7106083,6.81443275 33.0163901,6.81443275" id="Path"></path>
                <path d="M41.8614379,23.2032515 L48.2036199,23.2032515 C48.510005,23.2032515 48.7587733,22.9538947 48.7604827,22.645037 L48.7604827,16.9501754 C48.7604827,16.6401014 48.5112117,16.3888187 48.2036199,16.3888187 L41.8614379,16.3888187 C41.5556561,16.3888187 41.3076923,16.6387836 41.3076923,16.9470331 C41.3076923,16.9480468 41.3076923,16.9491618 41.3076923,16.9501754 L41.3076923,22.6449357 C41.3076923,22.9532865 41.5556561,23.2032515 41.8614379,23.2032515" id="Path"></path>
            </g>
        </g>
    </g>
</svg>