<?xml version="1.0" encoding="UTF-8"?>
<svg width="52px" height="58px" viewBox="0 0 52 58" version="1.1" xmlns="http://www.w3.org/2000/svg" xmlns:xlink="http://www.w3.org/1999/xlink">
    <!-- Generator: Sketch 52.4 (67378) - http://www.bohemiancoding.com/sketch -->
    <title>kops</title>
    <desc>Created with Sketch.</desc>
    <defs>
        <linearGradient x1="88.2351222%" y1="153.238579%" x2="16.2897271%" y2="-50.2786784%" id="linearGradient-1">
            <stop stop-color="#FFFFFF" offset="0%"></stop>
            <stop stop-color="#FFFFFF" stop-opacity="0.8629" offset="13.71%"></stop>
            <stop stop-color="#FFFFFF" stop-opacity="0" offset="100%"></stop>
        </linearGradient>
        <linearGradient x1="69.6286248%" y1="118.972808%" x2="44.7720663%" y2="24.2627264%" id="linearGradient-2">
            <stop stop-color="#FFFFFF" offset="0%"></stop>
            <stop stop-color="#FFFFFF" stop-opacity="0.8629" offset="13.71%"></stop>
            <stop stop-color="#FFFFFF" stop-opacity="0" offset="100%"></stop>
        </linearGradient>
        <linearGradient x1="98.4090949%" y1="199.021201%" x2="-30.581685%" y2="-165.517986%" id="linearGradient-3">
            <stop stop-color="#FFFFFF" offset="0%"></stop>
            <stop stop-color="#FFFFFF" stop-opacity="0.8629" offset="13.71%"></stop>
            <stop stop-color="#FFFFFF" stop-opacity="0" offset="100%"></stop>
        </linearGradient>
    </defs>
    <g id="landing" stroke="none" stroke-width="1" fill="none" fill-rule="evenodd">
        <g transform="translate(-1317.000000, -4195.000000)" id="Automation">
            <g transform="translate(0.000000, 3608.000000)">
                <g id="logos" transform="translate(637.000000, 586.000000)">
                    <g id="kops" transform="translate(680.438697, 1.000000)">
                        <g id="g57" transform="translate(0.141423, 0.236310)">
                            <g id="g8" fill="#414042">
                                <path d="M50.5130579,40.26 C49.7216529,38.9075207 48.0176033,38.4297521 46.6380992,39.1435537 L42.6399174,34.6356198 C43.2731405,32.7944628 43.6192562,30.8196694 43.6192562,28.758843 C43.6192562,26.7406612 43.2838017,24.7978512 42.6721488,22.9839669 L46.0586777,18.974876 C46.8798347,19.3185124 47.834876,19.2914876 48.656281,18.8085124 C50.0516529,17.9980165 50.5239669,16.2 49.7080165,14.804876 C48.8895868,13.4095041 47.0945455,12.9319835 45.6961983,13.7531405 C44.8750413,14.2306612 44.3841322,15.0572727 44.2765289,15.937438 L39.1995868,16.908843 C36.5752066,13.8820661 32.9687603,11.7352066 28.8684298,10.9623967 L26.9417355,5.36479339 C28.2163636,4.51140496 28.635124,2.79942149 27.8486777,1.45239669 C27.0302479,0.0624793388 25.2349587,-0.415289256 23.8398347,0.405867769 C22.4444628,1.21636364 21.9694215,3.01958678 22.7878512,4.41495868 C22.9998347,4.77991736 23.2814876,5.08041322 23.606281,5.30578512 L21.6743802,11.0590909 C17.7002479,11.9124793 14.2170248,14.07 11.6838843,17.0593388 L6.00049587,15.9966942 C5.97371901,15.5566116 5.85570248,15.1165289 5.61942149,14.7086777 C4.80371901,13.3133058 3.00570248,12.8409917 1.61057851,13.6569421 C0.215206612,14.4726446 -0.257107438,16.2706612 0.558595041,17.6660331 C1.3046281,18.9431405 2.87181818,19.4370248 4.19727273,18.8841322 L8.18479339,23.4513223 C7.66958678,25.1310744 7.3931405,26.9129752 7.3931405,28.7593388 C7.3931405,30.8253719 7.7392562,32.8061157 8.37793388,34.6519835 L4.28305785,39.4445455 C3.43760331,39.0419008 2.4153719,39.0528099 1.55132231,39.5571074 C0.150495868,40.3785124 -0.316363636,42.1708264 0.499338843,43.571405 C1.31504132,44.9613223 3.11305785,45.4390909 4.50842975,44.6233884 C5.37520661,44.1133884 5.88247934,43.2280165 5.95214876,42.2940496 L12.2179339,41.0650413 C14.7002479,43.7432231 17.9791736,45.6696694 21.682314,46.4695041 L23.7272727,52.2818182 C22.5840496,53.1726446 22.2352066,54.7827273 22.9866942,56.0655372 C23.8023967,57.4609091 25.6004132,57.9329752 26.9985124,57.1172727 C28.391157,56.3015702 28.8634711,54.5035537 28.0477686,53.1029752 C27.8357851,52.7486777 27.5593388,52.4481818 27.2427273,52.2176033 L29.193719,46.4965289 C32.9747107,45.7130579 36.326281,43.7538843 38.8460331,41.0114876 L45.101157,42.2191736 C45.157686,42.562562 45.2620661,42.9007438 45.4527273,43.2171074 C46.2657025,44.6127273 48.0609917,45.0847934 49.4618182,44.2690909 C50.8566942,43.4533884 51.326281,41.6501653 50.5130579,40.26 Z M25.5034711,42.0793388 C18.1455372,42.0793388 12.1829752,36.1167769 12.1829752,28.7590909 C12.1829752,21.4009091 18.1455372,15.4383471 25.5034711,15.4383471 C32.8589256,15.4383471 38.8242149,21.4009091 38.8242149,28.7590909 C38.8242149,36.1167769 32.8589256,42.0793388 25.5034711,42.0793388 Z" id="path4" fill-rule="nonzero"></path>
                                <path d="M23.0134711,29.7895041 C22.8657025,29.2901653 22.8094215,28.8609917 22.8364463,28.4985124 C22.8659504,28.0933884 22.9973554,27.6694215 23.2254545,27.2454545 C23.4587603,26.8214876 23.7245455,26.4778512 24.022314,26.2202479 L31.4714876,19.833719 C29.201405,18.3203306 26.362314,17.6598347 23.4696694,18.2129752 C17.6439669,19.3398347 13.8361983,24.9696694 14.9578512,30.7926446 C14.9578512,30.7926446 15.0329752,31.3078512 15.2960331,32.0918182 C15.3119008,32.1396694 15.3280165,32.1882645 15.3471074,32.2366116 C15.3766116,32.3223967 15.408843,32.4133884 15.4408264,32.504876 C15.5590909,32.8056198 15.6771074,33.1004132 15.8112397,33.3904959 L15.8219008,33.3847934 C16.578595,34.9626446 17.9687603,36.9270248 20.4721488,38.2472727 C20.512562,38.2631405 20.5527273,38.2847107 20.5928926,38.306281 C20.7163636,38.3707438 20.8398347,38.4295041 20.9633058,38.4885124 C21.0490909,38.5259504 21.134876,38.5638843 21.2154545,38.6013223 C21.2531405,38.6171901 21.2905785,38.6335537 21.3282645,38.654876 L21.3282645,38.6496694 C23.2254545,39.4547107 25.3695868,39.7202479 27.5404959,39.3047107 C28.5736364,39.1058678 29.5450413,38.7572727 30.4413223,38.3008264 L23.947438,31.3078512 C23.4696694,30.8092562 23.1555372,30.2940496 23.0134711,29.7895041 Z" id="path6"></path>
                            </g>
                            <path d="M34.1308264,22.3616529 L27.8112397,27.562314 C27.5779339,27.75 27.3604959,27.9324793 27.1564463,28.1310744 C26.9955372,28.2813223 26.9067769,28.4905785 26.8879339,28.7590909 C26.8666116,29.118843 26.9414876,29.4166116 27.134876,29.6660331 C27.3575207,29.9501653 27.5910744,30.2243802 27.8271074,30.4767769 L33.3228099,36.1224793 C35.5983471,33.6966942 36.7254545,30.2459504 36.0490909,26.7307438 C35.7354545,25.0933884 35.0647934,23.6119835 34.1308264,22.3616529 Z" id="path10" fill="#27AAE1"></path>
                            <g id="g55">
                                <path d="M23.9256198,31.3133058 C23.4478512,30.8092562 23.1339669,30.2992562 22.9916529,29.7895041 C22.8441322,29.2956198 22.7878512,28.8664463 22.8146281,28.5014876 C22.8441322,28.098843 22.9755372,27.6696694 23.2036364,27.2509091 C23.4371901,26.8217355 23.7027273,26.4780992 24.0007438,26.2257025 L31.4499174,19.8391736 C29.1798347,18.3257851 26.3407438,17.6600826 23.4478512,18.2184298 C17.6221488,19.3398347 13.8143802,24.9753719 14.9360331,30.798595 C14.9360331,30.798595 15.011157,31.3133058 15.2742149,32.0972727 C15.2903306,32.1399174 15.3064463,32.193719 15.3252893,32.2420661 C15.3547934,32.3278512 15.3870248,32.4193388 15.4192562,32.505124 C15.5372727,32.8110744 15.6555372,33.1061157 15.7896694,33.3961983 L15.8003306,33.3850413 C15.9022314,33.6 16.0472727,33.8305785 16.1759504,34.0561983 C19.2404132,33.7234711 22.192314,33.1864463 24.9723967,32.4406612 L23.9256198,31.3133058 Z" id="path35" fill="url(#linearGradient-1)"></path>
                                <path d="M42.6828099,23.107686 C42.6669421,23.0702479 42.6642149,23.0271074 42.6505785,22.9842149 L46.0371074,18.9805785 C46.0666116,18.9914876 46.1015702,18.9966942 46.1310744,19.0073554 C47.2259504,17.3385124 48.0121488,15.5724793 48.5005785,13.7424793 C47.6338017,13.286281 46.5820661,13.2218182 45.675124,13.7531405 C44.853719,14.2361157 44.3628099,15.0624793 44.2554545,15.9426446 L39.1782645,16.9140496 C36.5538843,13.8818182 32.947438,11.7352066 28.8471074,10.9623967 L26.9204132,5.37 C28.1950413,4.5168595 28.6138017,2.8046281 27.8273554,1.45760331 C27.0089256,0.062231405 25.2109091,-0.410082645 23.8182645,0.405619835 C22.4228926,1.22157025 21.9480992,3.01933884 22.766281,4.41471074 C22.9782645,4.77966942 23.2601653,5.08016529 23.5847107,5.31099174 L21.652562,11.058843 C17.6784298,11.9122314 14.1952066,14.0697521 11.662314,17.0642975 L5.97892562,16.0016529 C5.95214876,15.5618182 5.83413223,15.1214876 5.59785124,14.7081818 C4.78214876,13.3128099 2.98413223,12.8459504 1.58876033,13.6616529 C0.19338843,14.4773554 -0.27892562,16.2753719 0.53677686,17.6652893 C1.28280992,18.9423967 2.85,19.4417355 4.17545455,18.888843 L8.16297521,23.4505785 C7.6477686,25.1303306 7.37404959,26.9122314 7.37404959,28.7640496 C7.37404959,30.7445455 7.70677686,32.6442149 8.29710744,34.4261157 C8.61371901,34.4313223 8.92239669,34.4580992 9.24173554,34.4580992 C10.6504959,34.4580992 12.0379339,34.4097521 13.4117355,34.3185124 C12.6282645,32.6226446 12.161405,30.7549587 12.161405,28.7638017 C12.161405,21.4056198 18.1239669,15.4378512 25.4819008,15.4378512 C32.0295868,15.4378512 37.447438,20.1766116 38.5663636,26.4024793 C40.0772727,25.3777686 41.4592562,24.2828926 42.6828099,23.107686 Z" id="path44" fill="url(#linearGradient-2)"></path>
                                <path d="M34.1092562,22.3671074 L27.7899174,27.5677686 C27.5563636,27.75 27.3391736,27.9379339 27.135124,28.1310744 C26.9742149,28.2867769 26.8857025,28.4905785 26.8668595,28.7645455 C26.8452893,29.1242975 26.9204132,29.4190909 27.1138017,29.6660331 C27.3364463,29.9561157 27.57,30.2295868 27.8060331,30.4767769 L28.6217355,31.3135537 C31.3643802,30.3639669 33.8866116,29.2046281 36.1782645,27.8898347 C36.1460331,27.5087603 36.1031405,27.1222314 36.0280165,26.7304959 C35.7141322,25.0933884 35.0432231,23.617686 34.1092562,22.3671074 Z" id="path53" fill="url(#linearGradient-3)"></path>
                            </g>
                        </g>
                    </g>
                </g>
            </g>
        </g>
    </g>
</svg>