<?xml version="1.0" encoding="UTF-8"?>
<svg width="56px" height="54px" viewBox="0 0 56 54" version="1.1" xmlns="http://www.w3.org/2000/svg" xmlns:xlink="http://www.w3.org/1999/xlink">
    <!-- Generator: Sketch 52.4 (67378) - http://www.bohemiancoding.com/sketch -->
    <title>kubernetes</title>
    <desc>Created with Sketch.</desc>
    <g id="landing" stroke="none" stroke-width="1" fill="none" fill-rule="evenodd">
        <g id="Artboard" transform="translate(-114.000000, -126.000000)">
            <g id="kubernetes" transform="translate(117.000000, 129.000000)">
                <path d="M45.2687251,10.8802789 C44.9868526,9.97828685 44.3103586,9.24541833 43.464741,8.79442231 L26.2705179,0.56374502 C25.8195219,0.338247012 25.3121514,0.28187251 24.8611554,0.28187251 C24.4101594,0.28187251 23.9027888,0.28187251 23.4517928,0.394621514 L6.25756972,8.68167331 C5.41195219,9.07629482 4.79183267,9.80916335 4.56633466,10.7675299 L0.338247012,29.314741 C0.169123506,30.2731076 0.394621514,31.2314741 0.958366534,32.0207171 L12.8533865,46.7344622 C13.5298805,47.4109562 14.488247,47.8619522 15.4466135,47.9183267 L34.3884462,47.9183267 C35.4031873,48.0310757 36.3615538,47.5800797 36.9816733,46.7344622 L48.8766932,32.0207171 C49.4404382,31.2314741 49.6659363,30.2731076 49.5531873,29.314741 L45.2687251,10.8802789 Z" id="Path" stroke="#FFFFFF" stroke-width="5" fill="#FFFFFF"></path>
                <path d="M45.2687251,10.8802789 C44.9868526,9.97828685 44.3103586,9.24541833 43.464741,8.79442231 L26.2705179,0.56374502 C25.8195219,0.338247012 25.3121514,0.28187251 24.8611554,0.28187251 C24.4101594,0.28187251 23.9027888,0.28187251 23.4517928,0.394621514 L6.25756972,8.68167331 C5.41195219,9.07629482 4.79183267,9.80916335 4.56633466,10.7675299 L0.338247012,29.314741 C0.169123506,30.2731076 0.394621514,31.2314741 0.958366534,32.0207171 L12.8533865,46.7344622 C13.5298805,47.4109562 14.488247,47.8619522 15.4466135,47.9183267 L34.3884462,47.9183267 C35.4031873,48.0310757 36.3615538,47.5800797 36.9816733,46.7344622 L48.8766932,32.0207171 C49.4404382,31.2314741 49.6659363,30.2731076 49.5531873,29.314741 L45.2687251,10.8802789 Z" id="Path" fill="#326DE6"></path>
                <path d="M42.6191235,28.5818725 C42.562749,28.5818725 42.5063745,28.5818725 42.5063745,28.525498 C42.5063745,28.4691235 42.3936255,28.4691235 42.2808765,28.4691235 C42.0553785,28.412749 41.8298805,28.412749 41.6043825,28.412749 C41.4916335,28.412749 41.3788845,28.412749 41.2661355,28.3563745 L41.209761,28.3563745 C40.5896414,28.3 39.9131474,28.187251 39.2930279,28.0181275 C39.1239044,27.961753 38.9547809,27.7926295 38.8984064,27.623506 C38.9547809,27.623506 38.8984064,27.623506 38.8984064,27.623506 L38.4474104,27.510757 C38.6729084,25.8758964 38.5601594,24.1846614 38.2219124,22.5498008 C37.8272908,20.9149402 37.1507968,19.3364542 36.2488048,17.9270916 L36.5870518,17.5888446 L36.5870518,17.5324701 C36.5870518,17.3633466 36.6434263,17.1378486 36.7561753,17.0250996 C37.2635458,16.5741036 37.7709163,16.2358566 38.3346614,15.8976096 C38.4474104,15.8412351 38.5601594,15.7848606 38.6729084,15.7284861 C38.8984064,15.6157371 39.0675299,15.502988 39.2930279,15.390239 C39.3494024,15.3338645 39.4057769,15.3338645 39.4621514,15.27749 C39.5185259,15.2211155 39.4621514,15.2211155 39.4621514,15.164741 C39.9695219,14.7701195 40.0822709,14.0936255 39.6876494,13.586255 C39.5185259,13.360757 39.1802789,13.1916335 38.8984064,13.1916335 C38.6165339,13.1916335 38.3346614,13.3043825 38.1091633,13.473506 L38.0527888,13.5298805 C37.9964143,13.586255 37.9400398,13.6426295 37.8836653,13.6426295 C37.7145418,13.811753 37.5454183,13.9808765 37.4326693,14.15 C37.3762948,14.262749 37.2635458,14.3191235 37.2071713,14.375498 C36.8125498,14.826494 36.3051793,15.27749 35.7978088,15.6157371 C35.6850598,15.6721116 35.5723108,15.7284861 35.4595618,15.7284861 C35.4031873,15.7284861 35.2904382,15.7284861 35.2340637,15.6721116 L35.1776892,15.6721116 L34.7266932,15.9539841 C34.2756972,15.502988 33.7683267,15.051992 33.3173307,14.600996 C31.2314741,12.9661355 28.638247,11.9513944 25.9886454,11.6695219 L25.9322709,11.2185259 L25.9322709,11.2749004 C25.7631474,11.1621514 25.7067729,10.9930279 25.6503984,10.8239044 C25.6503984,10.2037849 25.6503984,9.58366534 25.7631474,8.90717131 L25.7631474,8.85079681 C25.7631474,8.73804781 25.8195219,8.6252988 25.8195219,8.5125498 C25.8758964,8.28705179 25.8758964,8.06155378 25.9322709,7.83605578 L25.9322709,7.49780876 C25.9886454,6.93406375 25.5376494,6.37031873 24.9739044,6.31394422 C24.6356574,6.25756972 24.2974104,6.42669323 24.0155378,6.70856574 C23.7900398,6.93406375 23.6772908,7.21593625 23.6772908,7.49780876 L23.6772908,7.77968127 C23.6772908,8.00517928 23.7336653,8.23067729 23.7900398,8.4561753 C23.8464143,8.5689243 23.8464143,8.68167331 23.8464143,8.79442231 L23.8464143,8.85079681 C23.9591633,9.47091633 23.9591633,10.0910359 23.9591633,10.7675299 C23.9027888,10.9366534 23.8464143,11.1057769 23.6772908,11.2185259 L23.6772908,11.3312749 L23.6209163,11.7822709 C23.0007968,11.8386454 22.3806773,11.9513944 21.7041833,12.0641434 C19.0545817,12.6278884 16.6304781,14.037251 14.7701195,16.0103586 L14.4318725,15.7848606 L14.375498,15.7848606 C14.3191235,15.7848606 14.262749,15.8412351 14.15,15.8412351 C14.037251,15.8412351 13.924502,15.7848606 13.811753,15.7284861 C13.3043825,15.3338645 12.797012,14.8828685 12.4023904,14.4318725 C12.3460159,14.3191235 12.2332669,14.262749 12.1768924,14.2063745 C12.0077689,14.037251 11.8950199,13.8681275 11.7258964,13.699004 C11.6695219,13.6426295 11.6131474,13.6426295 11.5567729,13.586255 C11.5003984,13.5298805 11.5003984,13.5298805 11.5003984,13.5298805 C11.2749004,13.360757 10.9930279,13.248008 10.7111554,13.248008 C10.3729084,13.248008 10.0910359,13.360757 9.92191235,13.6426295 C9.58366534,14.15 9.69641434,14.826494 10.1474104,15.2211155 C10.2037849,15.2211155 10.2037849,15.27749 10.2037849,15.27749 C10.2037849,15.27749 10.3165339,15.390239 10.3729084,15.390239 C10.5420319,15.502988 10.7675299,15.6157371 10.9930279,15.7284861 C11.1057769,15.7848606 11.2185259,15.8412351 11.3312749,15.8976096 C11.8950199,16.2358566 12.4587649,16.5741036 12.909761,17.0250996 C13.02251,17.1378486 13.135259,17.3633466 13.0788845,17.5324701 L13.0788845,17.4760956 L13.4171315,17.8143426 C13.360757,17.9270916 13.3043825,17.9834661 13.248008,18.0962151 C11.5003984,20.8585657 10.7675299,24.1282869 11.2749004,27.3416335 L10.8239044,27.4543825 C10.8239044,27.510757 10.7675299,27.510757 10.7675299,27.510757 C10.7111554,27.6798805 10.5420319,27.7926295 10.3729084,27.9053785 C9.75278884,28.074502 9.13266932,28.187251 8.4561753,28.2436255 C8.34342629,28.2436255 8.23067729,28.2436255 8.11792829,28.3 C7.89243028,28.3 7.66693227,28.3563745 7.44143426,28.3563745 C7.38505976,28.3563745 7.32868526,28.412749 7.21593625,28.412749 C7.15956175,28.412749 7.15956175,28.412749 7.10318725,28.4691235 C6.48306773,28.5818725 6.08844622,29.1456175 6.20119522,29.7657371 C6.20119522,29.7657371 6.20119522,29.7657371 6.20119522,29.7657371 C6.31394422,30.2731076 6.82131474,30.6113546 7.32868526,30.5549801 C7.44143426,30.5549801 7.49780876,30.5549801 7.61055777,30.4986056 C7.66693227,30.4986056 7.66693227,30.4986056 7.66693227,30.4422311 C7.66693227,30.3858566 7.83605578,30.4422311 7.89243028,30.4422311 C8.11792829,30.3858566 8.34342629,30.2731076 8.5125498,30.2167331 C8.6252988,30.1603586 8.73804781,30.1039841 8.85079681,30.1039841 L8.90717131,30.1039841 C9.52729084,29.8784861 10.0910359,29.7093625 10.7675299,29.5966135 L10.8239044,29.5966135 C10.9930279,29.5966135 11.1621514,29.652988 11.2749004,29.7657371 C11.3312749,29.7657371 11.3312749,29.8221116 11.3312749,29.8221116 L11.8386454,29.7657371 C12.6842629,32.3589641 14.262749,34.6703187 16.4613546,36.3615538 C16.9687251,36.7561753 17.4197211,37.0944223 17.9834661,37.3762948 L17.7015936,37.7709163 C17.7015936,37.8272908 17.7579681,37.8272908 17.7579681,37.8272908 C17.8707171,37.9964143 17.8707171,38.2219124 17.8143426,38.3910359 C17.5888446,38.9547809 17.2505976,39.5185259 16.9123506,40.0258964 L16.9123506,40.0822709 C16.8559761,40.1950199 16.7996016,40.2513944 16.6868526,40.3641434 C16.5741036,40.4768924 16.4613546,40.7023904 16.2922311,40.9278884 C16.2358566,40.9842629 16.2358566,41.0406375 16.1794821,41.097012 C16.1794821,41.097012 16.1794821,41.1533865 16.1231076,41.1533865 C15.8412351,41.7171315 16.0667331,42.3936255 16.5741036,42.675498 C16.6868526,42.7318725 16.8559761,42.788247 16.9687251,42.788247 C17.4197211,42.788247 17.8143426,42.5063745 18.0398406,42.111753 C18.0398406,42.111753 18.0398406,42.0553785 18.0962151,42.0553785 C18.0962151,41.999004 18.1525896,41.9426295 18.2089641,41.886255 C18.2653386,41.660757 18.3780876,41.4916335 18.4344622,41.2661355 L18.5472112,40.9278884 C18.7163347,40.3077689 18.9982072,39.7440239 19.2800797,39.1802789 C19.3928287,39.0111554 19.5619522,38.8984064 19.7310757,38.8420319 C19.7874502,38.8420319 19.7874502,38.8420319 19.7874502,38.7856574 L20.0129482,38.3346614 C21.5914343,38.9547809 23.2262948,39.2366534 24.9175299,39.2366534 C25.9322709,39.2366534 26.947012,39.1239044 27.961753,38.8420319 C28.5818725,38.7292829 29.201992,38.5037849 29.7657371,38.3346614 L29.9912351,38.7292829 C30.0476096,38.7292829 30.0476096,38.7292829 30.0476096,38.7856574 C30.2167331,38.8420319 30.3858566,38.9547809 30.4986056,39.1239044 C30.7804781,39.6876494 31.0623506,40.2513944 31.2314741,40.8715139 L31.2314741,40.9278884 L31.3442231,41.2661355 C31.4005976,41.4916335 31.4569721,41.7171315 31.5697211,41.886255 C31.6260956,41.9426295 31.6260956,41.999004 31.6824701,42.0553785 C31.6824701,42.0553785 31.6824701,42.111753 31.7388446,42.111753 C31.9643426,42.5063745 32.3589641,42.788247 32.8099602,42.788247 C32.9790837,42.788247 33.0918327,42.7318725 33.2609562,42.675498 C33.4864542,42.562749 33.7119522,42.337251 33.7683267,42.0553785 C33.8247012,41.773506 33.8247012,41.4916335 33.7119522,41.209761 C33.7119522,41.1533865 33.6555777,41.1533865 33.6555777,41.1533865 C33.6555777,41.097012 33.5992032,41.0406375 33.5428287,40.9842629 C33.4300797,40.7587649 33.3173307,40.5896414 33.1482072,40.4205179 C33.0918327,40.3077689 33.0354582,40.2513944 32.9227092,40.1386454 L32.9227092,40.0258964 C32.5280876,39.5185259 32.2462151,38.9547809 32.0207171,38.3910359 C31.9643426,38.2219124 31.9643426,37.9964143 32.0770916,37.8272908 C32.0770916,37.7709163 32.1334661,37.7709163 32.1334661,37.7709163 L31.9643426,37.3199203 C34.8394422,35.5723108 37.0380478,32.8663347 38.0527888,29.652988 L38.5037849,29.7093625 C38.5601594,29.7093625 38.5601594,29.652988 38.5601594,29.652988 C38.6729084,29.540239 38.8420319,29.4838645 39.0111554,29.4838645 L39.0675299,29.4838645 C39.6876494,29.5966135 40.3077689,29.7657371 40.8715139,29.9912351 L40.9278884,29.9912351 C41.0406375,30.0476096 41.1533865,30.1039841 41.2661355,30.1039841 C41.4916335,30.2167331 41.660757,30.3294821 41.886255,30.3858566 C41.9426295,30.3858566 41.999004,30.4422311 42.111753,30.4422311 C42.1681275,30.4422311 42.1681275,30.4422311 42.224502,30.4986056 C42.337251,30.5549801 42.3936255,30.5549801 42.5063745,30.5549801 C43.013745,30.5549801 43.464741,30.2167331 43.6338645,29.7657371 C43.57749,29.1456175 43.126494,28.6946215 42.6191235,28.5818725 Z M26.3268924,26.8342629 L24.8047809,27.5671315 L23.2826693,26.8342629 L22.8880478,25.1994024 L23.9591633,23.8464143 L25.6503984,23.8464143 L26.7215139,25.1994024 L26.3268924,26.8342629 Z M35.5159363,23.1699203 C35.7978088,24.3537849 35.8541833,25.5376494 35.7414343,26.7215139 L30.3858566,25.1994024 C29.8784861,25.0866534 29.5966135,24.5792829 29.7093625,24.0719124 C29.7657371,23.9027888 29.8221116,23.7900398 29.9348606,23.6772908 L34.1629482,19.8438247 C34.7830677,20.8585657 35.2340637,21.9860558 35.5159363,23.1699203 Z M32.4717131,17.7579681 L27.849004,21.0276892 C27.4543825,21.2531873 26.8906375,21.1968127 26.6087649,20.8021912 C26.4960159,20.6894422 26.4396414,20.5766932 26.4396414,20.4075697 L26.1013944,14.713745 C28.5818725,14.9956175 30.7804781,16.0667331 32.4717131,17.7579681 Z M22.2679283,14.8828685 L23.3954183,14.6573705 L23.1135458,20.2948207 C23.1135458,20.8021912 22.6625498,21.1968127 22.1551793,21.1968127 C21.9860558,21.1968127 21.8733068,21.1404382 21.7041833,21.0840637 L17.0250996,17.7579681 C18.4908367,16.3486056 20.2948207,15.3338645 22.2679283,14.8828685 Z M15.390239,19.8438247 L19.5619522,23.5645418 C19.9565737,23.9027888 20.0129482,24.4665339 19.6747012,24.8611554 C19.5619522,25.0302789 19.4492032,25.0866534 19.2237052,25.1430279 L13.7553785,26.7215139 C13.586255,24.3537849 14.15,21.9296813 15.390239,19.8438247 Z M14.4318725,29.3711155 L20.0129482,28.412749 C20.4639442,28.412749 20.9149402,28.6946215 20.9713147,29.1456175 C21.0276892,29.314741 21.0276892,29.540239 20.9149402,29.7093625 L18.7727092,34.8958167 C16.7996016,33.5992032 15.2211155,31.6260956 14.4318725,29.3711155 Z M27.2288845,36.3615538 C26.4396414,36.5306773 25.6503984,36.6434263 24.8047809,36.6434263 C23.6209163,36.6434263 22.3806773,36.4179283 21.2531873,36.0796813 L24.0155378,31.0623506 C24.2974104,30.7241036 24.7484064,30.6113546 25.1430279,30.8368526 C25.3121514,30.9496016 25.4249004,31.0623506 25.5940239,31.2314741 L28.3,36.1360558 C27.961753,36.1924303 27.623506,36.2488048 27.2288845,36.3615538 Z M34.1065737,31.4569721 C33.2609562,32.8099602 32.0770916,33.9938247 30.7241036,34.8394422 L28.525498,29.540239 C28.412749,29.089243 28.638247,28.638247 29.0328685,28.4691235 C29.201992,28.412749 29.3711155,28.3563745 29.540239,28.3563745 L35.1776892,29.314741 C34.8958167,30.1039841 34.5575697,30.8368526 34.1065737,31.4569721 Z" id="Shape" fill="#FFFFFF" fill-rule="nonzero"></path>
            </g>
        </g>
    </g>
</svg>