<?xml version="1.0" encoding="UTF-8"?>
<svg width="60px" height="59px" viewBox="0 0 60 59" version="1.1" xmlns="http://www.w3.org/2000/svg" xmlns:xlink="http://www.w3.org/1999/xlink">
    <!-- Generator: Sketch 52.4 (67378) - http://www.bohemiancoding.com/sketch -->
    <title>sygnet</title>
    <desc>Created with Sketch.</desc>
    <g id="landing" stroke="none" stroke-width="1" fill="none" fill-rule="evenodd">
        <g transform="translate(-415.000000, -16.000000)" fill="#2C2C2C" id="Top-section">
            <g>
                <g id="logo_mono" transform="translate(415.000000, 16.000000)">
                    <g id="sygnet">
                        <path d="M10.1070505,21.7543558 C10.1070505,20.2973421 10.1070505,18.8399827 10.1070505,17.3829689 C10.1070505,17.1821326 10.1112169,16.9812963 10.1049673,16.7808057 C10.0955929,16.491477 10.2129464,16.2754311 10.4507783,16.1105448 C10.933386,15.7762786 11.409744,15.4337161 11.8899213,15.0959931 C14.3074732,13.3932055 16.7250252,11.690418 19.1436187,9.98866738 C19.251945,9.91261922 19.3627018,9.84002778 19.4776249,9.77504117 C19.6171992,9.69588194 19.7578151,9.71040023 19.8796822,9.8137566 C19.9800229,9.89913795 20.0748085,9.99177844 20.1671636,10.086493 C20.5633185,10.495079 20.9566959,10.9060848 21.3525036,11.3150165 C21.4202075,11.3851883 21.4920779,11.4512119 21.5625594,11.5193096 C21.8344169,11.7837498 22.161479,11.8763903 22.531594,11.8138234 C22.9687185,11.7398493 23.4044542,11.6579246 23.8405371,11.5784197 C24.6002101,11.4401504 25.359536,11.306029 26.1171259,11.1594635 C26.4431465,11.0962052 26.7125735,11.1622289 26.9566549,11.3938301 C27.5413393,11.9472534 28.1353981,12.4899607 28.7259849,13.0371619 C28.7339705,13.0447667 28.7423033,13.0534085 28.7509833,13.0606677 C29.0006199,13.2649607 29.0391591,13.5079691 28.9082648,13.7986805 C28.7718153,14.1021819 28.654809,14.4139794 28.5284282,14.7219744 C28.2996236,15.2795458 28.0694302,15.8364257 27.8413199,16.3939971 C27.8006975,16.4949337 27.7638944,16.5979444 27.7316048,16.7016465 C27.6316113,17.0203574 27.6809136,17.3179823 27.8885391,17.5789658 C28.0531118,17.7853329 28.2308781,17.9813297 28.4082971,18.1769809 C29.0342983,18.8662539 29.6620355,19.5534527 30.288731,20.2420343 C30.3352558,20.2928483 30.3786558,20.3467734 30.4251805,20.3979331 C30.6001692,20.5901275 30.6435692,20.8072105 30.5560749,21.052293 C30.4536509,21.3388563 30.3560878,21.6268023 30.2543583,21.91302 C30.024512,22.5618491 29.7939714,23.2106782 29.5634307,23.8591617 C29.5540563,23.8864699 29.5429459,23.9127411 29.5349604,23.940395 C29.4467716,24.2380198 29.2516453,24.4087825 28.9440264,24.4758432 C28.3145532,24.6134212 27.6871632,24.7648262 27.0590789,24.9113918 C26.5264744,25.0358342 25.9969948,25.176869 25.4605712,25.2822994 C24.8824836,25.3963717 24.5613238,25.7268355 24.4297351,26.2958141 C24.1908616,27.3297235 23.9245594,28.3570651 23.6697148,29.3868264 C23.6461052,29.4815409 23.6204124,29.5755641 23.5957612,29.669933 C23.5360429,29.8980775 23.3943854,30.0529392 23.1732191,30.1348638 C22.8815713,30.2430596 22.5899235,30.3498727 22.2979285,30.4559945 C21.5622122,30.7225088 20.8237183,30.9838379 20.0904325,31.25692 C19.7963543,31.3661528 19.5206776,31.3512888 19.2373626,31.2258094 C18.1954162,30.7646809 17.1503449,30.3090833 16.1070096,29.8507202 C14.3359436,29.0733006 12.565572,28.2955352 10.7948532,27.5174242 C10.6948597,27.4735237 10.596255,27.4258207 10.4966087,27.3805375 C10.2809976,27.2834032 10.1691993,27.1178256 10.1629497,26.8817307 C10.1608665,26.8015344 10.1560057,26.7213382 10.1560057,26.6407962 C10.1556585,25.0116371 10.1560057,23.382478 10.1560057,21.7529731 C10.1396873,21.7543558 10.1233689,21.7543558 10.1070505,21.7543558 Z" id="Goldberg_5_-path"></path>
                        <path d="M18.9887676,32.7194645 C18.9939756,32.5168998 18.9106477,32.3644578 18.725243,32.2732 C18.6533726,32.2375956 18.5811551,32.2012999 18.5075487,32.1691523 C15.8045986,30.9807269 13.1019957,29.7919557 10.3986983,28.6045673 C10.2619016,28.5444201 10.1226745,28.4880753 9.98101701,28.4407181 C9.83449871,28.3916324 9.6935356,28.417558 9.57861248,28.5243711 C9.48591015,28.6100981 9.39772141,28.7013559 9.31474066,28.7964161 C8.26064219,29.9962488 7.20689091,31.1971185 6.15383404,32.3979881 C5.53199927,33.1066188 4.91502529,33.8187062 4.28902412,34.5228431 C4.07688507,34.7613578 4.01091711,35.0123167 4.12340984,35.314781 C4.21090418,35.5512217 4.27999693,35.7945758 4.35950567,36.0341275 C5.23687947,38.6861345 6.11460047,41.3381415 6.99266866,43.9901485 C7.16765734,44.5183376 7.34507642,45.0458353 7.5176347,45.5747158 C7.60304584,45.8360449 7.76657693,46.0216716 8.02072715,46.1305587 C8.22175582,46.2166314 8.41931248,46.3099633 8.61964674,46.3988014 C11.195869,47.5460917 13.7720912,48.6937276 16.3483134,49.8403266 C16.5111501,49.912918 16.6753756,49.9827441 16.8413371,50.0480764 C17.0263946,50.1210135 17.192356,50.0843721 17.3315831,49.9416089 C17.3919959,49.880079 17.4510199,49.8171665 17.506919,49.7518342 C19.1828523,47.7980876 20.8591327,45.8436497 22.5340244,43.8888662 C22.9280961,43.4298118 22.9544833,43.3281838 22.8958065,42.7294773 C22.8371298,42.1300795 22.7881746,41.5296446 22.7329698,40.9299011 C22.7020691,40.5987459 22.6687379,40.2675907 22.6343651,39.9367812 C22.6138803,39.7376733 22.5184004,39.5783178 22.3604245,39.4569864 C22.2736245,39.3906171 22.184047,39.3273588 22.0934279,39.2665203 C21.1896669,38.661246 20.2859059,38.0573545 19.3831865,37.4510432 C19.2543754,37.3646248 19.1283419,37.2726756 19.0109884,37.171739 C18.8044045,36.9940628 18.6964254,36.7634986 18.6894814,36.4917992 C18.6860094,36.3372832 18.6901758,36.1817301 18.7037166,36.0279054 C18.7932941,34.9877739 18.8866909,33.9479881 18.9776572,32.9206465 C18.9818236,32.8456353 18.9870316,32.7827227 18.9887676,32.7194645 Z" id="Goldberg_5_-path"></path>
                        <path d="M20.1320964,36.5595512 C20.2022308,36.6096739 20.2720179,36.6604879 20.3438883,36.7085365 C20.6587985,36.9204344 20.9750974,37.1306038 21.290702,37.342156 C21.9212168,37.7652604 22.5499956,38.1914758 23.1825935,38.6107777 C23.5433341,38.8496381 23.7412379,39.1756082 23.7773467,39.606663 C23.8280379,40.2181594 23.8898394,40.8289645 23.9467802,41.4401152 C23.9908746,41.9081571 24.0342745,42.376199 24.0790633,42.8445866 C24.1002425,43.0703114 24.2172488,43.2282841 24.4231383,43.3229987 C24.5016054,43.3589487 24.5800726,43.3952444 24.6595813,43.4291204 C24.9987955,43.5725749 25.3383568,43.7156838 25.6779182,43.8584469 C26.2775322,44.1107886 26.878535,44.3589821 27.4760658,44.6165089 C27.7465344,44.7330008 27.9881854,44.7091494 28.2194205,44.5262881 C28.3819099,44.3980432 28.5503018,44.2774032 28.7159161,44.1529607 C29.4325364,43.6130187 30.1508927,43.0744594 30.8647354,42.5317521 C31.1928392,42.2825215 31.5563574,42.2061276 31.9570259,42.2811388 C32.8059293,42.4401486 33.6551799,42.5998497 34.5040833,42.7578225 C34.8210767,42.8169327 35.1387645,42.8729318 35.4561051,42.9289309 C35.6772713,42.9676463 35.8664952,42.9092275 36.0196103,42.7422672 C36.0581495,42.7000951 36.1001606,42.6606883 36.1383526,42.6174791 C36.7903938,41.8673676 37.4354909,41.1106884 38.0979481,40.3692187 C38.3479319,40.0895689 38.3958455,39.8171782 38.2448136,39.4746158 C37.969137,38.8499838 37.7167227,38.2153272 37.4573645,37.5834361 C37.3028606,37.206652 37.1487039,36.8295222 37.0049632,36.4485901 C36.8966369,36.1609897 36.9195521,35.8733894 37.0539184,35.5961592 C37.1011375,35.4983336 37.1514815,35.4011994 37.2063391,35.3071762 C37.7563035,34.3586482 38.2986295,33.4052807 38.8635235,32.4653945 C39.0690658,32.1231777 39.0697602,31.8310836 38.8562323,31.4923236 C38.3625143,30.7107559 37.8951834,29.9125958 37.4167421,29.1216948 C37.3726478,29.0480664 37.324387,28.976512 37.277515,28.9042662 C37.1598143,28.724516 36.9931584,28.6429371 36.778589,28.655727 C36.703941,28.6602207 36.6285987,28.6612578 36.5542979,28.6685169 C35.9119784,28.7297011 35.270006,28.7919223 34.6276864,28.8531065 C34.1232052,28.9011552 33.6187239,28.9498951 33.1135483,28.9937957 C32.7208654,29.0280173 32.3872064,28.9063403 32.1278482,28.6021476 C32.0868786,28.554099 32.044173,28.5077787 32.0042451,28.4586931 C31.7025285,28.0895138 31.4008119,27.7196432 31.0997897,27.3497726 C30.6893996,26.846472 30.2772734,26.3448997 29.8703553,25.8391794 C29.692589,25.6182941 29.475242,25.5332584 29.1981766,25.6061955 C29.1540822,25.6179484 29.1079046,25.6255532 29.0631159,25.6359234 C28.0704718,25.8664876 27.0795636,26.1039653 26.0841419,26.323468 C25.7369422,26.4002075 25.5307055,26.5827231 25.4744591,26.9315076 C25.4737647,26.9373841 25.4723759,26.9429149 25.4709871,26.9484456 C25.2966929,27.6498171 25.1234402,28.3515343 24.9477571,29.0522145 C24.8390836,29.4860347 24.7311045,29.9202006 24.6144453,30.3519468 C24.5213958,30.6962376 24.2988408,30.9323326 23.969001,31.0671452 C23.7881099,31.1411193 23.6047884,31.2109454 23.421467,31.278006 C22.4805556,31.6219512 21.5410331,31.968316 20.5973441,32.3043106 C20.3112515,32.4062843 20.1675108,32.595022 20.1498036,32.8895358 C20.1477204,32.9182267 20.14529,32.9469176 20.1428596,32.9752629 C20.0883493,33.5750064 20.0331445,34.1747499 19.9793285,34.774839 C19.9428726,35.1861905 19.908847,35.5975419 19.8734326,36.0088934 C19.8578086,36.2404946 19.941831,36.4247386 20.1320964,36.5595512 Z" id="Goldberg_5_-path"></path>
                        <path d="M29.8394545,57.3231205 C30.3869886,57.3231205 30.9341754,57.3189725 31.4813622,57.3241576 C32.8003741,57.3362561 34.1200804,57.3518114 35.4387451,57.3684038 C35.7227545,57.3718605 35.9866263,57.3082566 36.2293189,57.1599627 C36.5046484,56.9926567 36.7813666,56.8277704 37.056696,56.6601188 C37.5233325,56.3756295 37.9917049,56.0939056 38.454175,55.8028485 C38.7267268,55.6307032 38.768738,55.5031496 38.6798549,55.1913522 C38.6295109,55.0150587 38.5680565,54.8418763 38.5156294,54.6659285 C38.447231,54.4350186 38.3725831,54.2054914 38.3205031,53.9707791 C38.2521048,53.661747 38.3503623,53.392813 38.5666677,53.1663969 C38.6420101,53.0872376 38.721866,53.0122265 38.8048468,52.9413634 C39.5648671,52.2911516 40.3273177,51.6423225 41.087338,50.9921106 C41.1876787,50.9060379 41.2859363,50.8171999 41.381069,50.7255964 C41.5206433,50.5914751 41.5668209,50.4262431 41.5334897,50.2378511 C41.5234209,50.1815063 41.5123105,50.1251615 41.4980753,50.0695081 C41.3831522,49.6135648 41.2703123,49.1569301 41.1508756,48.7020238 C41.0449796,48.3000055 40.9494997,48.2194636 40.5297352,48.18939 C39.8231837,48.137539 39.1159378,48.0943298 38.4093862,48.0428245 C38.0132313,48.0141336 37.6160348,47.9875167 37.2219631,47.9394681 C36.8876097,47.8986786 36.6497779,47.7075212 36.5240915,47.3936496 C36.4619428,47.2394793 36.41021,47.0811608 36.3640325,46.9214597 C36.1400886,46.1506078 35.9137144,45.3801016 35.7022697,44.605793 C35.6133866,44.2801686 35.4307595,44.1021467 35.0911981,44.0419995 C34.0822356,43.8629407 33.0757035,43.6672895 32.0688242,43.4757864 C31.7806484,43.4211699 31.5195542,43.4678359 31.2890135,43.6558822 C31.222004,43.710153 31.1501336,43.7585473 31.0813881,43.8103983 C30.319979,44.3862903 29.5589171,44.9632194 28.7968137,45.5380744 C28.6773769,45.6279495 28.5551626,45.7150592 28.4284347,45.7942184 C28.1815757,45.9487345 27.9138847,45.9919437 27.6330001,45.910019 C27.4840514,45.8664642 27.3378803,45.8121935 27.194834,45.7520463 C26.2028842,45.3355097 25.2119761,44.9141337 24.2200264,44.4979429 C23.7818603,44.3147359 23.6676316,44.3420441 23.3648734,44.6942854 C21.7222713,46.6086252 20.0803637,48.5240019 18.4388032,50.4393787 C18.3749184,50.5133529 18.3148529,50.5907837 18.2596481,50.67098 C18.165557,50.8089037 18.1634738,50.9523582 18.2624257,51.0882079 C18.3367265,51.1898359 18.4183184,51.2869701 18.5023407,51.3809933 C19.9046806,52.9479312 21.3077148,54.5145235 22.7114434,56.08077 C22.9839953,56.3842714 23.2586303,56.6860443 23.5346541,56.9864346 C23.685686,57.1509751 23.875257,57.2373935 24.1005897,57.2422329 C24.3193255,57.247418 24.5384086,57.2536402 24.7574916,57.2560599 C26.4507849,57.2729979 28.1447725,57.2892445 29.8387601,57.3058369 C29.8398017,57.3117133 29.8398017,57.3172441 29.8394545,57.3231205 Z" id="Goldberg_5_-path"></path>
                        <path d="M41.9504766,31.4377072 C42.0834541,31.4377072 42.2157372,31.4366702 42.3480203,31.4377072 C42.6879289,31.4415096 43.0281847,31.4439293 43.3680932,31.4504971 C43.6396034,31.4560279 43.8319521,31.340573 43.943056,31.0930707 C43.9694432,31.0353433 43.9999968,30.9803812 44.0270784,30.9229994 C44.4475373,30.0301248 44.8679962,29.1369045 45.2877607,28.2433385 C45.3294247,28.1551918 45.3679639,28.0653167 45.4037254,27.9747502 C45.4700406,27.8053702 45.4634438,27.6370272 45.3801159,27.475252 C45.3297719,27.3781178 45.2776919,27.2820205 45.2217928,27.1886887 C44.6586347,26.2539876 44.0944351,25.3206692 43.5316243,24.3856224 C43.445866,24.2432049 43.3621908,24.0987134 43.2882373,23.9497281 C43.1750502,23.721238 43.1413718,23.4789209 43.2045621,23.2296903 C43.2396293,23.0910752 43.2823349,22.9534972 43.3309429,22.8190302 C43.6586994,21.9126743 43.977776,21.0032073 44.3246286,20.1041106 C44.4728829,19.7200674 44.4315661,19.4103439 44.1725551,19.0854108 C43.5177363,18.2627079 42.88618,17.42203 42.2445548,16.5889569 C42.1924748,16.5208593 42.1355341,16.4551813 42.0775517,16.391923 C41.9591566,16.2622955 41.8105551,16.1952348 41.6338304,16.1945435 C41.5588353,16.1941978 41.4838401,16.1935065 41.4091922,16.1980002 C40.7422214,16.2391354 40.0752507,16.2816532 39.40828,16.3224427 C38.9600451,16.3497509 38.5111158,16.3770591 38.0628809,16.3995279 C37.6851275,16.4185399 37.3611902,16.2930604 37.0924576,16.0275832 C37.0435024,15.9791889 36.9928112,15.9321773 36.9438561,15.8834373 C36.161615,15.104635 35.3759019,14.3289437 34.5988689,13.5449562 C34.3606898,13.3043675 34.0978596,13.2103443 33.757951,13.2615039 C33.017374,13.3728108 32.2743665,13.4619946 31.5317062,13.5615485 C31.2178376,13.6037207 30.9046634,13.651078 30.5904476,13.6922131 C30.3279646,13.7264348 30.1401295,13.8550253 30.0404832,14.1028732 C30.0147904,14.1668228 29.9856256,14.229044 29.9592385,14.2929936 C29.735989,14.833627 29.5123924,15.374606 29.2898373,15.9159306 C29.1981766,16.13889 29.1113766,16.3639235 29.0179799,16.5858459 C28.9134728,16.8350764 28.9523592,17.0559618 29.1353334,17.253687 C29.178039,17.3000073 29.2186614,17.3487473 29.2606725,17.3954132 C29.9529889,18.1562405 30.6463468,18.9160308 31.3365799,19.6789322 C31.4674742,19.8234237 31.5948965,19.9731004 31.7060005,20.1324558 C31.8504356,20.3391686 31.8959187,20.5752636 31.8417556,20.8224201 C31.8084244,20.9731338 31.7657188,21.1228104 31.7143333,21.2686846 C31.3563703,22.2860017 30.9984073,23.302973 30.632806,24.3175247 C30.5272573,24.6099645 30.5644076,24.8602321 30.7630059,25.1025492 C31.4160887,25.8972526 32.0643106,26.6957583 32.7090606,27.4977208 C32.8989788,27.7341615 33.1295195,27.845814 33.4326249,27.8029505 C33.4610953,27.7988024 33.49026,27.8001851 33.5187304,27.7974197 C34.4016594,27.7127297 35.2849356,27.6273484 36.1682118,27.5433497 C36.4720116,27.5143131 36.7758114,27.4838939 37.0803056,27.4634991 C37.4945149,27.4354996 37.8226187,27.5903613 38.0479513,27.9436396 C38.1191272,28.0549465 38.191692,28.165562 38.2600904,28.2782515 C38.7715156,29.1230775 39.2812048,29.9689406 39.7940189,30.8130752 C39.8679724,30.9354436 39.947134,31.055738 40.0321979,31.1715386 C40.1252475,31.2987465 40.2585722,31.3637331 40.4141177,31.3817081 C40.4828632,31.3896586 40.5523032,31.3951894 40.6210487,31.3969177 C41.0644228,31.4086706 41.5081441,31.4186952 41.9515182,31.429411 C41.9504766,31.4328678 41.9504766,31.4352875 41.9504766,31.4377072 Z" id="Goldberg_5_-path"></path>
                        <path d="M41.972003,32.5649484 C41.5456417,32.5649484 41.1189332,32.5822321 40.6936135,32.5597633 C40.2988473,32.5390229 40.0481691,32.69665 39.8575565,33.0361014 C39.3860592,33.877125 38.8912995,34.7053587 38.4069558,35.5391231 C38.3520983,35.633492 38.3017543,35.7306262 38.2531464,35.8277605 C38.1663464,36.0005972 38.1548888,36.1803474 38.2184264,36.3621717 C38.2680759,36.5028608 38.3222391,36.6418215 38.3791799,36.7797453 C38.7336708,37.6387439 39.0905922,38.4967055 39.4457775,39.3553584 C39.4811919,39.4400484 39.5117455,39.5264668 39.5433407,39.6125395 C39.6849982,39.996237 39.6231966,40.3464043 39.3610608,40.6588931 C39.1353809,40.9271357 38.9065763,41.1922673 38.6767301,41.4573989 C38.12746,42.0910184 37.5847868,42.7312057 37.0233648,43.3537636 C36.7643538,43.6406726 36.6869282,43.9369148 36.8157393,44.3002176 C36.8959425,44.5262881 36.9494113,44.7627287 37.0164208,44.9939843 C37.1546063,45.4734334 37.2952222,45.9518455 37.4320189,46.4312947 C37.5045837,46.6857103 37.6590876,46.8371153 37.934417,46.8478312 C37.9858025,46.8499053 38.0375353,46.8595841 38.0889209,46.8633865 C38.784362,46.9114351 39.4798031,46.9598294 40.174897,47.0061497 C40.4276585,47.0230877 40.6807671,47.0351862 40.9338757,47.0469391 C41.1421956,47.056618 41.3164898,46.9795328 41.4612721,46.8329673 C41.5098801,46.7838816 41.5584881,46.7354873 41.6050128,46.683982 C42.001515,46.244631 42.3966283,45.8045886 42.794172,45.3662747 C43.2608085,44.8512212 43.7277922,44.3365133 44.1972063,43.8235339 C44.4211501,43.5791427 44.7044651,43.4502065 45.0346521,43.4273921 C45.5575349,43.391442 46.0804178,43.3592944 46.6033006,43.3264554 C47.0171627,43.3008756 47.431372,43.272876 47.8455814,43.2545553 C48.1608387,43.2407284 48.4024898,43.1242364 48.5778257,42.8487347 C49.1875084,41.8891451 49.8058712,40.9350862 50.4263172,39.9824101 C50.5926259,39.7269574 50.6235266,39.4670109 50.5270051,39.1801019 C50.2742437,38.4303362 50.0308567,37.676768 49.7780952,36.9270022 C49.6458121,36.5332801 49.544777,36.4655281 49.1333453,36.4838488 C48.4083922,36.5159964 47.6837863,36.5543661 46.9591804,36.5896248 C46.7925245,36.597921 46.6255214,36.6103652 46.4588655,36.6089826 C46.0696546,36.6062172 45.7717572,36.4378742 45.5807973,36.0970401 C45.4797622,35.9169442 45.3821991,35.73512 45.2874135,35.5512217 C44.8568858,34.7143462 44.4232333,33.879199 44.0006912,33.0381754 C43.8555617,32.7498838 43.6462002,32.6085033 43.3191381,32.6095403 C42.8698616,32.610923 42.4205851,32.5905283 41.9716558,32.5794667 C41.972003,32.574973 41.972003,32.5697879 41.972003,32.5649484 Z" id="Goldberg_5_-path"></path>
                        <path d="M8.9727489,22.0734125 C8.96163851,20.444599 8.95122251,18.8157855 8.93941772,17.1869721 C8.93872332,17.101245 8.93455693,17.0148267 8.92309933,16.9301367 C8.90330895,16.7814971 8.81720341,16.6909306 8.66617151,16.6715729 C8.58631557,16.6615484 8.50541802,16.6553262 8.42556208,16.6560176 C7.71067777,16.65982 6.99683506,16.6646594 6.28264515,16.6708815 C5.57956563,16.6771037 4.87683332,16.6809061 4.1744482,16.6943873 C3.73037971,16.7026835 3.64427417,16.7718182 3.50122786,17.1911201 C2.37977264,20.4746726 1.25797021,23.758225 0.137209379,27.0417775 C-0.0648608823,27.6335705 -0.0575696873,27.7006311 0.2521325,28.2409188 C0.93403283,29.4310726 1.61801636,30.6208808 2.30095829,31.8103432 C2.5842733,32.3032736 2.8658523,32.7968953 3.1526393,33.287406 C3.37449995,33.6666098 3.48768707,33.6766344 3.77621008,33.354121 C3.91022918,33.2040987 4.04181789,33.0520024 4.1744482,32.9009431 C5.65213038,31.2164762 7.12703497,29.5295896 8.61131395,27.8513448 C8.87379697,27.5544113 8.99844168,27.2377743 8.99566408,26.8392128 C8.98281769,25.2504975 8.99010889,23.6617821 8.99010889,22.0730668 C8.98420649,22.0734125 8.9779569,22.0734125 8.9727489,22.0734125 Z" id="Goldberg_5_-path"></path>
                        <path d="M6.84858076,15.4848758 C7.45965234,15.4848758 8.07072392,15.4686292 8.6807539,15.4900609 C9.14322398,15.5063076 9.52653252,15.359742 9.89803626,15.0939191 C11.3295409,14.0700342 12.7738919,13.062396 14.2130349,12.0485357 C15.8025154,10.9288993 17.3923431,9.80891717 18.9821708,8.68928075 C19.2196555,8.52232045 19.4258921,8.32528657 19.5953256,8.0888459 C20.0734197,7.42065905 20.5556801,6.75558327 21.031691,6.0863594 C21.271606,5.74932775 21.2608428,5.62246558 20.9855134,5.31550752 C20.7473344,5.05037596 20.504989,4.78939248 20.2688931,4.52253254 C20.1893844,4.43265744 20.1130004,4.33690588 20.0522405,4.23389518 C19.8699606,3.92382607 19.9116246,3.60995454 20.1623028,3.35173645 C20.218202,3.29400898 20.2782675,3.23973824 20.3421523,3.19099828 C20.4744354,3.08971594 20.6098433,2.99223602 20.7455984,2.89510177 C21.2032077,2.56602061 21.662553,2.2390135 22.1187735,1.90820397 C22.1878662,1.85808131 22.2545286,1.79862547 22.3045253,1.7305278 C22.3663269,1.64722049 22.3350789,1.55872807 22.2382102,1.52208668 C22.1861302,1.5023833 22.1243287,1.49339579 22.0694711,1.49927223 C21.9611448,1.51067946 21.852124,1.52796313 21.7472697,1.55665403 C21.1802925,1.71013306 20.6147041,1.86845152 20.0484213,2.02400459 C18.6880926,2.39733195 17.3256808,2.76236315 15.9893089,3.21726946 C15.5803076,3.3562302 15.2081094,3.54496793 14.8664648,3.8087168 C14.1564413,4.35730062 13.4370434,4.8934402 12.7207703,5.43476488 C11.2573233,6.54195705 9.79457073,7.64984057 8.32938774,8.75461304 C8.07697352,8.94507913 7.87768085,9.17564334 7.72178816,9.44976242 C6.66248169,11.3108685 5.60039762,13.1705918 4.53970235,15.0313522 C4.50289918,15.0959931 4.4674848,15.1623625 4.43970882,15.2314971 C4.36853287,15.4081363 4.41679363,15.4949003 4.60323991,15.5197888 C4.68795665,15.5311961 4.77545099,15.5308504 4.86155653,15.5308504 C5.52401367,15.5315417 6.18647082,15.5311961 6.84927516,15.5311961 C6.84858076,15.5152951 6.84858076,15.5000854 6.84858076,15.4848758 Z" id="Goldberg_5_-path"></path>
                        <path d="M25.700139,2.2037548 C25.1758674,2.2037548 24.6512485,2.2037548 24.1276713,2.2037548 C23.8422731,2.2037548 23.584998,2.28602509 23.3523742,2.45333106 C22.792341,2.85604067 22.2270998,3.25252816 21.6681082,3.65765748 C21.3719468,3.87232072 21.3625724,4.00125693 21.6038762,4.27364763 C21.8094185,4.50559454 22.0212103,4.73270202 22.2267526,4.96499461 C22.2989701,5.04622788 22.3666741,5.13299192 22.4250036,5.22424972 C22.5864515,5.47624569 22.6027699,5.74275995 22.4697924,6.01031123 C22.4066021,6.13821042 22.3281349,6.25988749 22.2455014,6.37672512 C21.8062937,6.99478932 21.3632668,7.60974245 20.9223231,8.22676962 C20.8490639,8.32943465 20.7764992,8.43313669 20.7115728,8.54098682 C20.6147041,8.70068797 20.6233841,8.8593521 20.7442096,9.00384362 C20.8282319,9.10512595 20.9185039,9.20260587 21.0101646,9.29766608 C21.35667,9.65785786 21.7059529,10.0156299 22.0524583,10.3758217 C22.2472374,10.5780407 22.474306,10.6565086 22.7562322,10.6018921 C23.3662622,10.4836718 23.9787226,10.3761674 24.5904886,10.2645148 C25.1567714,10.1611585 25.7237486,10.0609131 26.289337,9.95479138 C26.7268087,9.87286676 27.1128948,9.95824812 27.4375266,10.2735023 C27.4909954,10.3253534 27.5493249,10.3720193 27.6041825,10.4228333 C27.945827,10.7387788 28.2871244,11.0557614 28.628769,11.3720527 C28.9575672,11.676591 29.2912261,11.9762899 29.6148163,12.2867047 C29.8536897,12.5162319 30.1283247,12.6033416 30.4522621,12.5421574 C30.4692749,12.5390464 30.4862877,12.536281 30.5033005,12.5342069 C31.3195671,12.4249741 32.1358338,12.3167783 32.9517532,12.2065085 C33.191321,12.1743608 33.4308889,12.1397935 33.6697623,12.1024608 C33.8867622,12.0682391 34.0381413,11.9496731 34.1131364,11.7408863 C34.1287604,11.6976771 34.147162,11.6555049 34.1613972,11.6119501 C34.3617314,11.0077128 34.5641489,10.4041669 34.7596224,9.79854696 C34.8689903,9.46013262 34.8221183,9.33154208 34.5370673,9.11687885 C34.5322065,9.11342212 34.5276929,9.10996538 34.5235265,9.10685432 C33.9207877,8.68374997 33.3156186,8.26410236 32.7170462,7.83650426 C32.4681039,7.65917376 32.1997185,7.59833523 31.9000851,7.63843335 C31.6035765,7.67853147 31.3056791,7.71379017 31.0091705,7.75146858 C30.2724126,7.84445475 29.5353076,7.93571255 28.7982025,8.03111843 C28.369758,8.08642619 28.0041566,7.97200826 27.6968848,7.66263049 C27.1299076,7.09192357 26.5573752,6.52640174 25.988662,5.95707751 C25.9282492,5.89658465 25.8733917,5.8281413 25.8244365,5.75762391 C25.5897295,5.41713553 25.6279214,5.06178318 25.9351932,4.78489872 C26.0501164,4.68154235 26.1778859,4.59166724 26.3056554,4.50386618 C26.7750695,4.18100714 27.2462195,3.86229619 27.7159808,3.54081984 C27.7965311,3.48585776 27.8774287,3.42951298 27.9513822,3.36625473 C28.1020669,3.2376642 28.1329677,3.11875252 28.060403,2.93692826 C28.020475,2.83599161 27.9621454,2.74265976 27.9183983,2.64241445 C27.7715328,2.3067655 27.5201601,2.16884178 27.1510868,2.18266872 C26.6674375,2.20064374 26.1834411,2.18716247 25.6994446,2.18716247 C25.700139,2.19234757 25.700139,2.19822402 25.700139,2.2037548 Z" id="Goldberg_5_-path"></path>
                        <path d="M19.54394,57.9031607 C20.2595187,57.7825206 20.974403,57.6611892 21.6896346,57.5381294 C21.7969193,57.5194631 21.9052456,57.499414 22.0090583,57.466575 C22.1847414,57.4112673 22.217031,57.3203552 22.1173847,57.1696415 C22.0670407,57.0932477 22.0069751,57.023076 21.9451736,56.9546326 C20.4240914,55.2559931 18.8984957,53.5608103 17.3833159,51.85664 C17.0857657,51.5220281 16.7430796,51.2752172 16.3344254,51.0951213 C14.402606,50.2437275 12.4753001,49.3809265 10.545911,48.5219279 C9.85220589,48.2128958 9.15919517,47.9028267 8.46479565,47.5951773 C8.37070451,47.5536965 8.27279418,47.5142897 8.17245345,47.4918209 C8.03669834,47.4614017 7.97593839,47.5097959 7.96274479,47.6456456 C7.9564952,47.7133976 7.9592728,47.7835693 7.96829999,47.8513213 C8.03218475,48.3286964 8.0964167,48.8060715 8.16342626,49.2831009 C8.21307582,49.6349965 8.26585019,49.9865465 8.31862455,50.3380964 C8.35126133,50.5527596 8.45646286,50.724905 8.63179873,50.8534956 C8.71998747,50.9184822 8.80887061,50.9820861 8.89914255,51.043616 C11.9836652,53.1456565 15.0681879,55.2476969 18.1527106,57.3490461 C18.3662384,57.4949203 18.5811551,57.6394118 18.7981549,57.7804466 C18.9505756,57.8793092 19.1165371,57.9411847 19.3036778,57.9321972 C19.3838809,57.922864 19.4644313,57.9169876 19.54394,57.9031607 Z" id="Goldberg_5_-path"></path>
                        <path d="M48.1389652,28.2461039 C47.822319,28.2461039 47.5049784,28.2606222 47.1893738,28.2426472 C46.7584989,28.2177587 46.4831695,28.3954348 46.3116528,28.7891569 C46.0852786,29.3100869 45.8314755,29.8189183 45.5929493,30.3343174 C45.4217798,30.7038424 45.2565127,31.0764784 45.0863849,31.4466947 C44.9461162,31.7508874 44.9339642,32.0543887 45.0783993,32.3606554 C45.1155496,32.4384319 45.1447144,32.5196652 45.1808232,32.5977874 C45.5443413,33.3779725 45.9078595,34.1585032 46.2727664,34.9379969 C46.306792,35.0105884 46.34672,35.0807601 46.3873424,35.1498948 C46.4842111,35.3140897 46.6279518,35.4091499 46.8192589,35.4285076 C46.8935596,35.4361124 46.968902,35.4426802 47.0432027,35.4402605 C47.6879527,35.4181374 48.3330498,35.3897922 48.9777998,35.3718171 C49.4253403,35.3593729 49.7169881,35.1550799 49.8885048,34.7381976 C50.1249478,34.1654167 50.389514,33.6047343 50.6391506,33.0374841 C50.7870577,32.7014895 50.9307984,32.3634208 51.0738447,32.0253521 C51.1891151,31.7526157 51.1887679,31.4784967 51.0717615,31.2057603 C51.0262784,31.1003299 50.9825312,30.9942081 50.9342704,30.8901604 C50.5936675,30.1625177 50.2527173,29.434875 49.9096839,28.7082694 C49.8659368,28.6149375 49.81594,28.5240254 49.7596936,28.437607 C49.6558809,28.2782515 49.504849,28.1918332 49.3135419,28.1818086 C49.2333388,28.1776606 49.1520941,28.1752408 49.0715437,28.1790432 C48.7607999,28.1942529 48.4507505,28.2125736 48.1396596,28.2295116 C48.1389652,28.2350424 48.1389652,28.2405731 48.1389652,28.2461039 Z" id="Goldberg_5_-path"></path>
                        <path d="M49.0774461,26.9923462 C49.4551994,26.9767909 49.6781017,26.8018801 49.7746232,26.4468734 C49.7839976,26.4136888 49.796844,26.3818868 49.8079544,26.3493935 C49.9461399,25.9356223 50.0839782,25.5221968 50.2221637,25.1087713 C50.3346564,24.771394 50.4461076,24.433671 50.5592947,24.0966394 C50.6683154,23.7723976 50.6360258,23.4640569 50.4620788,23.1695431 C50.3655572,23.0063852 50.2725077,22.8411533 50.1777222,22.6776497 C49.7791368,21.9928705 49.3760379,21.3105111 48.9830078,20.6229665 C48.7976031,20.2990705 48.5288705,20.1379866 48.1563251,20.1200116 C47.6903831,20.0978885 47.2251354,20.0588274 46.7595405,20.0301365 C46.5008767,20.0142355 46.2422129,20.0007542 45.9832018,19.9914211 C45.7307876,19.9824335 45.5526741,20.0975428 45.4519862,20.3277614 C45.4061558,20.4328461 45.3641447,20.5396592 45.3249111,20.6475093 C45.147492,21.1383657 44.9714617,21.6295677 44.7961259,22.1214611 C44.6839803,22.4346413 44.5711404,22.7478214 44.4631613,23.0623843 C44.3701117,23.3333923 44.3999709,23.5936845 44.5485724,23.839804 C44.6141932,23.9476541 44.6763419,24.0579239 44.7436987,24.1643914 C45.192628,24.8723307 45.6360021,25.5837267 46.0328514,26.323468 C46.103333,26.4544782 46.1859665,26.5799577 46.2724192,26.7009434 C46.4810863,26.9933832 46.7574573,27.15343 47.0980603,27.1140232 C47.7778774,27.070814 48.427141,27.018963 49.0774461,26.9923462 Z" id="Goldberg_5_-path"></path>
                        <path d="M39.7353421,15.1506096 C40.2353098,15.1233013 40.7359718,15.1001412 41.2355923,15.0676479 C41.5939025,15.0448335 41.7393792,14.9266131 41.8511775,14.5916555 C41.8654127,14.5481007 41.8775647,14.5038545 41.8897167,14.4596083 C42.0167918,14.0192202 42.1438669,13.5784865 42.2705948,13.1374072 C42.3306603,12.9282747 42.3910731,12.7187966 42.4483611,12.5089728 C42.5271754,12.2210268 42.4487083,11.9773269 42.2330972,11.7744166 C42.1869196,11.7312074 42.1393533,11.6890353 42.0928285,11.6465174 C41.7543087,11.3361026 41.4150946,11.0256878 41.0762276,10.7149274 C40.7210423,10.3889573 40.3679401,10.0595304 40.0096299,9.73632574 C39.7478413,9.50023075 39.4412639,9.4082816 39.0857314,9.44561434 C38.3930679,9.51820577 37.6986683,9.57627891 37.0049632,9.6416112 C36.8101841,9.6599319 36.6157523,9.68032663 36.4209732,9.70314108 C36.1640454,9.732869 35.9828071,9.86387925 35.888716,10.1079247 C35.8723976,10.1507882 35.8546904,10.1933061 35.8404552,10.2365153 C35.6519257,10.8082592 35.4689515,11.3817315 35.2755612,11.9517471 C35.1672349,12.2721864 35.2186204,12.5442315 35.4654795,12.7848202 C35.7817785,13.0938523 36.088703,13.4125633 36.4011828,13.7253978 C36.8032402,14.1277617 37.2094639,14.5263232 37.6101324,14.9297242 C37.8413674,15.1623625 38.1166968,15.2491265 38.4416758,15.223201 C38.8722035,15.1889793 39.3034256,15.1703129 39.7349949,15.1447331 C39.7349949,15.1471528 39.7349949,15.1485355 39.7353421,15.1506096 Z" id="Goldberg_5_-path"></path>
                        <path d="M48.1469507,18.9239813 C48.4767905,18.9167222 48.606296,18.8271928 48.6934432,18.5084818 C48.872251,17.8561959 49.0368237,17.2004533 49.211118,16.5467848 C49.3017372,16.2062964 49.2381996,15.901758 49.0211997,15.6241822 C48.8660015,15.42542 48.7167056,15.2211269 48.5646321,15.0195993 C48.1219524,14.4333371 47.6740647,13.8505316 47.2379818,13.2590842 C46.9845259,12.9158305 46.659547,12.7353889 46.2304081,12.7177596 C45.7130804,12.6963278 45.1961,12.655884 44.6787723,12.6244277 C44.4607309,12.6109464 44.2423422,12.5960825 44.0236064,12.5877863 C43.8152865,12.5801815 43.6743234,12.6818095 43.5951619,12.8712386 C43.5753715,12.9189415 43.5566227,12.9673358 43.5423875,13.0167671 C43.3562884,13.6607568 43.1740086,14.3061292 42.9844375,14.9490819 C42.8799304,15.3013232 42.9375655,15.6169231 43.1649814,15.9034864 C43.1899798,15.9349427 43.2125477,15.968473 43.2375461,15.9999293 C43.7888993,16.712708 44.3395582,17.4265238 44.8940362,18.1372285 C45.0134729,18.2910532 45.1429784,18.4379644 45.2749143,18.5814189 C45.4287238,18.7490705 45.6245445,18.8389456 45.8523075,18.858649 C45.9210531,18.8645255 45.9897986,18.8738587 46.0588914,18.8759327 C46.6050366,18.8921794 47.151529,18.9070433 47.7601702,18.924327 C47.8473174,18.924327 47.9973077,18.9274381 48.1469507,18.9239813 Z" id="Goldberg_5_-path"></path>
                        <path d="M43.8590337,50.0726192 C44.358307,50.0287186 44.8575802,49.9837811 45.3565063,49.9416089 C45.7009284,49.9122267 45.9828546,49.7618587 46.2137425,49.5095171 C46.3338736,49.3781611 46.4536575,49.2464595 46.5751774,49.1161406 C47.139377,48.5108664 47.7001047,47.902481 48.2691651,47.3020462 C48.5427585,47.0137545 48.6212256,46.687093 48.5424113,46.3037411 C48.4629025,45.9165868 48.4035314,45.5249388 48.3361746,45.1350191 C48.3139538,45.0053915 48.3035378,44.8726529 48.2743731,44.7444081 C48.2261123,44.5338929 48.117786,44.4450548 47.9028693,44.4232774 C47.8625941,44.4191293 47.8219718,44.4153269 47.7816966,44.4170553 C47.0685483,44.4509313 46.3554,44.4854986 45.6419045,44.5197203 C45.2572071,44.5383867 44.9509769,44.7088037 44.6943963,44.9894906 C44.017704,45.7326885 43.3361509,46.4720841 42.6580697,47.2149365 C42.557729,47.3248606 42.4622491,47.4403156 42.3733659,47.5599186 C42.2549708,47.7199654 42.2167788,47.9021353 42.2504572,48.0984779 C42.2615676,48.1662299 42.2733724,48.2343276 42.2889964,48.3010426 C42.3886427,48.7196531 42.488289,49.1379181 42.5900186,49.5558373 C42.611545,49.6450211 42.6361961,49.7338592 42.6667497,49.8202775 C42.7358425,50.013509 42.8736808,50.1182481 43.0830422,50.1220505 C43.1576902,50.1234332 43.2330325,50.1220505 43.2837237,50.1220505 C43.4916964,50.1044211 43.6757122,50.0885201 43.8590337,50.0726192 Z" id="Goldberg_5_-path"></path>
                        <path d="M50.8349713,36.2850865 C51.0856495,37.0538643 51.3377166,37.8226422 51.5988108,38.5879633 C51.7071371,38.9046002 51.8380314,38.9702781 52.1643992,38.9177358 C52.1928696,38.913242 52.2213399,38.9063285 52.2491159,38.9007978 C52.5820805,38.8323544 52.9150451,38.7639111 53.2473152,38.6954677 C53.3775151,38.6688509 53.5070207,38.643271 53.6365262,38.6159628 C53.9215772,38.5551243 54.1233002,38.3916207 54.2420426,38.1261435 C54.2746793,38.0528607 54.3087049,37.9802693 54.3392585,37.9056038 C54.4503624,37.6349415 54.5628551,37.3649705 54.6704871,37.0925798 C54.9350533,36.4261213 55.1982307,35.7589715 55.4607137,35.0914759 C55.5704288,34.8125174 55.5714704,34.5321762 55.4683521,34.250798 C55.2207987,33.5777718 54.9794948,32.9026714 54.7256918,32.2320649 C54.5899367,31.8718731 54.4482792,31.7958249 54.0632347,31.8352317 C54.0569851,31.8359231 54.0517771,31.8362687 54.0455275,31.8369601 C53.6479838,31.9043664 53.2511344,31.9724641 52.8532435,32.0391791 C52.4747958,32.1031287 52.2123128,32.3077674 52.0748216,32.6672678 C52.0543369,32.7205015 52.0279497,32.7720069 52.0057289,32.8245492 C51.8394202,33.2089381 51.6741531,33.5940184 51.5064556,33.977716 C51.3040382,34.4402271 51.0984959,34.9013555 50.8971201,35.364558 C50.8238609,35.5335923 50.7655313,35.7081574 50.7554626,35.8986235 C50.7815025,36.0282511 50.7946961,36.1613354 50.8349713,36.2850865 Z" id="Goldberg_5_-path"></path>
                        <path d="M41.8216655,6.55198158 C41.608832,6.54887052 41.394957,6.53331521 41.1828179,6.54368542 C40.8748518,6.55889505 40.7488182,6.65948604 40.6981271,6.95676523 C40.6283399,7.3691537 40.5766072,7.78499891 40.529388,8.20049844 C40.494668,8.50123437 40.6082023,8.74735389 40.8394374,8.94715317 C41.0345636,9.1161875 41.2199683,9.29697474 41.4084978,9.47430523 C41.9348526,9.97138371 42.4622491,10.4677708 42.9858263,10.968306 C43.2448373,11.2161539 43.5430819,11.3647935 43.9045169,11.3945215 C44.5128108,11.4446441 45.1204104,11.5054826 45.7287044,11.5562966 C45.9234835,11.5725433 46.1203457,11.5846419 46.3147776,11.5732346 C46.5654558,11.5587164 46.6776014,11.4570884 46.7345421,11.2144256 C46.7716925,11.052996 46.7963437,10.8877641 46.8154397,10.7228779 C46.8512012,10.4211049 46.8827964,10.1189863 46.9088364,9.81617631 C46.9293212,9.56798275 46.84391,9.35401086 46.668227,9.17633469 C46.619619,9.12724905 46.5717054,9.07781775 46.5203199,9.03184317 C46.1140961,8.66681197 45.7092612,8.30039808 45.3002599,7.93916928 C44.9464634,7.6273718 44.587806,7.32145076 44.2308846,7.01380136 C43.960416,6.78081743 43.6455058,6.65360959 43.2882373,6.63079514 C42.90354,6.60625232 42.5184954,6.57963546 42.1160909,6.55267293 C42.0289438,6.55198158 41.9254782,6.55336428 41.8216655,6.55198158 Z" id="Goldberg_5_-path"></path>
                        <path d="M52.1005144,24.2290323 C51.896361,24.2328347 51.7494955,24.3254752 51.6685979,24.51525 C51.6529739,24.552237 51.6352667,24.5885327 51.6227676,24.6265568 C51.3550765,25.4323217 51.0894687,26.2384323 50.8200417,27.0435058 C50.7103266,27.3708586 50.7325474,27.6843845 50.8808017,27.9954906 C51.1075231,28.4721744 51.3248702,28.9533519 51.5498556,29.4314183 C51.7307467,29.8154615 51.9161514,30.1977764 52.1012088,30.5800913 C52.2116184,30.8078901 52.3942454,30.9136662 52.6490901,30.8773705 C53.1046161,30.8123839 53.5608366,30.7460146 54.0163627,30.6761885 C54.2781513,30.6360904 54.437516,30.4805373 54.5038312,30.2271587 C54.5152888,30.1829124 54.5302184,30.1390119 54.5399399,30.09442 C54.7020822,29.3667773 54.8586693,28.6374063 55.0270612,27.9111463 C55.1096948,27.5540656 55.07185,27.222219 54.9086661,26.8931379 C54.6225735,26.3172458 54.3514105,25.7344404 54.0715675,25.1557829 C53.9965723,25.0009212 53.9167164,24.8481335 53.8351244,24.6963829 C53.7184653,24.4786086 53.535491,24.3514007 53.288632,24.3230555 C53.0084418,24.2909079 52.7275572,24.2635997 52.4015366,24.229378 C52.3310551,24.2286866 52.2157847,24.2269583 52.1005144,24.2290323 Z" id="Goldberg_5_-path"></path>
                        <path d="M54.1965594,41.0999725 C54.1517706,40.7705457 54.1118426,40.4404275 54.0562907,40.1130747 C54.0163627,39.8797451 53.905606,39.7992032 53.6698573,39.8182152 C53.5275054,39.8296224 53.3851535,39.856585 53.2441904,39.8863129 C52.8726867,39.9644351 52.5018774,40.046014 52.131068,40.1289757 C51.8307402,40.196382 51.5960332,40.3598856 51.4290301,40.618795 C51.3852829,40.6862013 51.3387582,40.7518793 51.295011,40.8192856 C50.9280208,41.3816964 50.5606835,41.9437615 50.1957765,42.5075549 C49.9843319,42.8349077 49.774276,43.1639889 49.569081,43.4958354 C49.3881899,43.7875838 49.3479147,44.1056034 49.4117995,44.439524 C49.4999882,44.9013438 49.584705,45.3635093 49.6735881,45.8249834 C49.6885177,45.9034513 49.7110857,45.9812278 49.7388617,46.0562389 C49.7909416,46.195891 49.8947543,46.2650257 50.0457862,46.2577666 C50.097519,46.2553469 50.1499462,46.2539642 50.1999429,46.243594 C50.627693,46.1537189 51.0564847,46.0641894 51.4828461,45.9698206 C51.8231018,45.8948094 52.0966952,45.7150592 52.2980711,45.4305699 C52.3876486,45.3040534 52.4744486,45.1758086 52.5598597,45.0465267 C52.9667778,44.4281168 53.3730016,43.8090156 53.7799197,43.1906057 C53.893454,43.017769 54.0115019,42.848389 54.1208698,42.6727868 C54.2475978,42.4688395 54.3212041,42.2479541 54.3180793,42.0021803 C54.2781513,41.70179 54.2385706,41.4007084 54.1965594,41.0999725 Z" id="Goldberg_5_-path"></path>
                        <path d="M38.2208568,8.33911351 C38.4614662,8.31664473 38.7017284,8.28795383 38.9409491,8.25684322 C39.1812113,8.2257326 39.3235632,8.08642619 39.3707824,7.85067687 C39.3808512,7.80020854 39.3930032,7.74974021 39.401336,7.69892621 C39.4343199,7.48357163 39.4683455,7.26856272 39.4968159,7.05251679 C39.5183423,6.88209976 39.5374383,6.71099139 39.5478543,6.53988301 C39.5596591,6.34215778 39.4784143,6.18314797 39.3176608,6.06596466 C39.2714833,6.03208866 39.2253057,5.99648429 39.1760033,5.96848474 C38.3586951,5.50908467 37.541734,5.05003028 36.7233842,4.59270426 C36.41889,4.42263291 36.0928694,4.38806556 35.7522665,4.44855842 C35.5314474,4.4879652 35.3102812,4.52598928 35.0898093,4.56816145 C34.677336,4.64766635 34.2659043,4.73270202 33.8530838,4.81082423 C33.557964,4.86647766 33.3826281,5.02963555 33.3402697,5.33244552 C33.2996474,5.62765068 33.255553,5.92251016 33.2031258,6.21598695 C33.1427131,6.55267293 33.2552058,6.809854 33.5333128,7.00515952 C34.1117476,7.41167154 34.6887936,7.82094895 35.2658396,8.22918934 C35.5745002,8.44696363 35.9140616,8.54755462 36.2938981,8.51195025 C36.9365649,8.45456845 37.5785372,8.39891502 38.2208568,8.33911351 Z" id="Goldberg_5_-path"></path>
                        <path d="M54.0340699,20.0681606 C53.8542204,19.6772039 53.6677741,19.2893582 53.4858415,18.8990928 C53.3212688,18.5454689 53.1591265,18.1904622 52.9959426,17.8361469 C52.8577571,17.5367936 52.6317301,17.33734 52.3130007,17.2488476 C51.8192826,17.1119609 51.3259118,16.9730002 50.8297633,16.8468293 C50.5346435,16.7718182 50.4040964,16.8527058 50.3079221,17.1437629 C50.2558421,17.3017357 50.2148725,17.4628195 50.170431,17.623212 C50.0440502,18.0760443 49.9155863,18.5285309 49.793372,18.9824001 C49.6909481,19.363678 49.7527496,19.7186847 49.9700967,20.0512226 C50.111407,20.2672685 50.2402181,20.4916106 50.370418,20.7149157 C50.7169234,21.3098197 51.0665535,21.9036868 51.4057677,22.5030846 C51.5873532,22.8245609 51.8470586,23.0036198 52.2202983,23.028854 C52.5070853,23.0485574 52.793178,23.0869271 53.0803122,23.1111243 C53.4966047,23.146383 53.630971,23.0585819 53.7497133,22.6610574 C53.8861628,22.2047684 54.0163627,21.7470967 54.1396186,21.287351 C54.1844074,21.1224647 54.2021146,20.9503193 54.232321,20.781285 C54.2142666,20.5559059 54.1687834,20.3612917 54.0340699,20.0681606 Z" id="Goldberg_5_-path"></path>
                        <path d="M6.71595045,47.443081 C6.68400807,47.0369146 6.63609451,46.632131 6.50971379,46.2418656 C6.33125312,45.6905164 6.14966764,45.1405499 5.96773497,44.590929 C4.96606366,41.563175 3.96335075,38.5361122 2.96272103,35.5080125 C2.85265871,35.1744376 2.7162092,34.8536526 2.54052613,34.5491142 C1.98431211,33.5839939 1.42983409,32.6181822 0.872925673,31.6537531 C0.795500126,31.5196318 0.711477784,31.3889672 0.622594645,31.2621051 C0.582666672,31.2047233 0.522948313,31.1608227 0.471215549,31.1103544 C0.383721209,31.1812175 0.398650799,31.2603767 0.402122796,31.3312398 C0.419135585,31.7221965 0.472604348,32.1086594 0.592041066,32.4823325 C0.855912884,33.3071094 1.1242983,34.1308493 1.39233652,34.9538979 C2.30859668,37.7683714 3.22520405,40.5821536 4.14076982,43.3966271 C4.25117935,43.7357328 4.38971205,44.0617029 4.57268633,44.3693523 C5.13306674,45.3120039 5.68823916,46.2574209 6.24792517,47.2007638 C6.32951712,47.3386876 6.42048346,47.4717719 6.51353299,47.6027821 C6.54755857,47.6511764 6.59963853,47.6860894 6.6524129,47.7362121 C6.74129604,47.6276706 6.72254725,47.5315734 6.71595045,47.443081 Z" id="Goldberg_5_-path"></path>
                        <path d="M52.8244259,13.9065307 C52.6442293,13.6400164 52.4556998,13.3797243 52.2689063,13.1183951 C51.8109498,12.4788992 51.3522989,11.8397489 50.8926065,11.2016356 C50.7061602,10.9427262 50.4634676,10.7543342 50.1575846,10.6547802 C49.6211609,10.4805608 49.0840429,10.3104894 48.5462305,10.140418 C48.5028305,10.1265911 48.4566529,10.1179493 48.4111698,10.1141469 C48.2438195,10.0996286 48.1507699,10.157356 48.093482,10.3160202 C48.070914,10.3803154 48.0566788,10.4484131 48.0445268,10.5161651 C47.9893221,10.8383328 47.9431445,11.1618832 47.8806485,11.4823225 C47.8056534,11.8718965 47.8750933,12.2224094 48.1295908,12.5324786 C48.1691715,12.5812185 48.2035443,12.6344522 48.2413891,12.6849206 C48.7906591,13.4146373 49.3392347,14.144354 49.8891991,14.8730337 C49.9718327,14.9829579 50.0586326,15.0901167 50.146127,15.1969298 C50.2804933,15.360779 50.448538,15.4848758 50.6509554,15.5443317 C51.2078638,15.7081809 51.7668555,15.867882 52.3289719,16.0144476 C52.6063845,16.0866934 52.7452644,15.9943985 52.8126211,15.7185511 C52.8702563,15.479345 52.9136563,15.2363366 52.9598338,14.9940195 C52.9883042,14.8422688 53.0101778,14.6891354 53.0344818,14.5366934 C53.0372594,14.3005984 52.951501,14.0945771 52.8244259,13.9065307 Z" id="Goldberg_5_-path"></path>
                        <path d="M43.9284737,51.2185268 C43.7107794,51.2378845 43.4937795,51.2683038 43.2753909,51.2845504 C42.7278569,51.3260312 42.2560124,51.5355094 41.8397199,51.8912074 C41.3630146,52.2977194 40.8755462,52.6904045 40.3925913,53.0903487 C40.1936458,53.2555806 39.9953948,53.4215039 39.7978381,53.5881185 C39.570075,53.7799673 39.5061903,54.018482 39.5985454,54.2995146 C39.6433342,54.4360556 39.6853454,54.5729423 39.7343005,54.7074093 C39.8849852,55.1218718 40.0151851,55.198957 40.4498792,55.1218718 C40.8241606,55.0555025 41.1967059,54.982911 41.5695985,54.911011 C41.7622943,54.8736782 41.9522126,54.8263209 42.1445613,54.7917536 C42.6674441,54.6987674 43.1236646,54.4744253 43.5288467,54.1325543 C44.0513824,53.6914749 44.5822508,53.2607657 45.1086056,52.8238344 C45.183948,52.7616132 45.2644983,52.700429 45.3207447,52.6229981 C45.4040726,52.5082346 45.4929558,52.3875945 45.5349669,52.2558929 C45.6297525,51.958268 45.5870469,51.6537297 45.5137878,51.3561048 C45.4797622,51.2199095 45.3780327,51.145244 45.2370696,51.1352195 C45.1516584,51.1289973 45.0648585,51.1338368 44.9697257,51.1338368 C44.6284284,51.1614906 44.278451,51.1877618 43.9284737,51.2185268 Z" id="Goldberg_5_-path"></path>
                        <path d="M58.2049806,28.9021922 C58.005688,28.4701003 57.8008401,28.0404282 57.597381,27.6100647 C57.5730771,27.5585593 57.5446067,27.508091 57.5116227,27.4614251 C57.3980884,27.2982672 57.2835125,27.252984 57.0956774,27.3162422 C56.9599223,27.3615255 56.8297224,27.4247837 56.6995225,27.4849309 C56.4425946,27.6034969 56.2860075,27.8060616 56.21379,28.0760325 C56.1974716,28.1368711 56.1801116,28.1977096 56.1665708,28.2592395 C56.0023453,29.0152274 55.8450639,29.772598 55.6728528,30.5265119 C55.5853584,30.9095181 55.615912,31.2731666 55.7599999,31.6371608 C55.9558206,32.1332023 56.1353229,32.6351202 56.3231579,33.133927 C56.3794043,33.2839493 56.4297482,33.4370826 56.498841,33.5815742 C56.5936265,33.7806821 56.7186185,33.8335701 56.9220775,33.744732 C57.1533126,33.6437954 57.3776036,33.5255751 57.597381,33.4018239 C57.7609121,33.3102205 57.8522257,33.1567414 57.8938896,32.9759542 C57.9105552,32.9033628 57.9234016,32.8297343 57.9334704,32.7561059 C58.0345055,32.0063401 58.1355407,31.25692 58.2355342,30.5071542 C58.2778926,30.1894802 58.3171262,29.871115 58.3584429,29.5530954 C58.3580957,29.3225311 58.299419,29.1071766 58.2049806,28.9021922 Z" id="Goldberg_5_-path"></path>
                        <path d="M42.0338046,5.40399993 C42.2751084,5.42059226 42.5167594,5.43856728 42.7573689,5.45308557 C42.872292,5.45999904 42.9879095,5.46622116 43.1024854,5.46034471 C43.2823349,5.45101153 43.3649684,5.3666672 43.3691348,5.18899103 C43.371218,5.0980789 43.3493444,5.0068211 43.3479556,4.91521763 C43.3417061,4.4710272 43.1188038,4.19034032 42.7254265,3.98915836 C42.0601917,3.64901565 41.4154418,3.27050318 40.755415,2.91999026 C40.4311305,2.74784487 40.0988603,2.58676102 39.7586045,2.44918297 C39.3325904,2.27669191 38.8833139,2.21723607 38.421191,2.24177888 C38.0305913,2.26286497 37.6392972,2.27254382 37.2486974,2.28775346 C37.1740495,2.29051884 37.0980127,2.2898275 37.0247536,2.30261742 C36.8660833,2.33061697 36.7886578,2.41288726 36.794213,2.57431678 C36.8098369,3.01885288 36.9323985,3.40393314 37.362579,3.63899111 C38.2149544,4.10495897 39.0600386,4.58406243 39.9096364,5.05521539 C40.1898266,5.21042278 40.4908488,5.30721136 40.8106198,5.33244552 C41.2178851,5.36459316 41.6258448,5.38498789 42.0334574,5.41056773 C42.0338046,5.40883936 42.0338046,5.40641965 42.0338046,5.40399993 Z" id="Goldberg_5_-path"></path>
                        <path d="M55.1874675,39.7096737 C55.2506579,40.1234449 55.3162786,40.5365247 55.3832882,40.9496045 C55.3996066,41.0512325 55.4169665,41.1538976 55.4485617,41.2517231 C55.4989057,41.4076219 55.5999408,41.462584 55.7565279,41.4110786 C55.892283,41.3661411 56.0214413,41.3004631 56.1526828,41.2420443 C56.530089,41.074047 56.7814616,40.7937058 56.9265911,40.4075885 C57.1005382,39.9461144 57.2921925,39.4915538 57.4689171,39.0311167 C57.6890418,38.4586814 57.9029168,37.8838264 58.1185279,37.3096627 C58.2313678,37.0085811 58.2706014,36.7002404 58.2181742,36.3801467 C58.1834542,36.1654835 58.1643583,35.9480548 58.1327631,35.7327003 C58.0914463,35.4547788 58.0553375,35.1758203 57.9983968,34.9013555 C57.9549968,34.6915317 57.8418097,34.6341499 57.642517,34.707087 C57.3932276,34.7979992 57.1571317,34.9165652 56.9446455,35.0783404 C56.747436,35.229054 56.6116809,35.4278163 56.516201,35.6518127 C56.3582251,36.0206463 56.2061516,36.3922453 56.0551197,36.7638443 C55.8002751,37.3905503 55.5461249,38.017602 55.2950994,38.6460364 C55.2027443,38.8766006 55.1534419,39.117535 55.1527475,39.3681483 C55.1638579,39.4818749 55.1697603,39.5966385 55.1874675,39.7096737 Z" id="Goldberg_5_-path"></path>
                        <path d="M32.8159981,3.7461499 C32.9017564,3.73889075 32.9889036,3.73889075 33.0736203,3.72368112 C33.7871158,3.59474491 34.4995697,3.46408033 35.212718,3.33203306 C35.2686172,3.32166285 35.3241692,3.30299649 35.3776379,3.28260175 C35.529017,3.22487428 35.6185946,3.11425876 35.5991514,2.95248357 C35.5762362,2.75994344 35.5401274,2.56809465 35.4918667,2.38073962 C35.4547163,2.23521109 35.3474316,2.13220039 35.2071629,2.07654696 C35.0898093,2.02988104 34.9689838,1.99047426 34.8471167,1.95936364 C33.9548133,1.73191049 33.0607739,1.51206215 32.1702065,1.27976957 C31.8254372,1.18989446 31.4921254,1.18989446 31.1504808,1.29221382 C30.5716988,1.46539623 29.9887504,1.62509738 29.4082324,1.79136633 C29.3419173,1.81037837 29.2756021,1.83146445 29.2131062,1.85946401 C29.0280487,1.94138862 28.9728439,2.0603003 29.0440199,2.24834668 C29.1842886,2.6196 29.4099684,2.90996573 29.8172338,3.01816153 C29.8894513,3.03717357 29.9599329,3.06344476 30.0321504,3.0824568 C30.8005035,3.2819104 31.5685094,3.4827467 32.3382512,3.67736087 C32.4934495,3.71676765 32.6548974,3.73163161 32.8128733,3.75755712 C32.8139149,3.75340904 32.8146093,3.74960663 32.8159981,3.7461499 Z" id="Goldberg_5_-path"></path>
                        <path d="M46.7699565,51.5700767 C46.7959965,51.7778265 46.9015452,51.8600968 47.1098651,51.8507636 C47.149793,51.8486895 47.1904154,51.8438501 47.2299962,51.836591 C47.518172,51.7795548 47.8056534,51.7207903 48.0938292,51.6644456 C48.4715825,51.5904714 48.7965615,51.416252 49.0750157,51.1531945 C49.6895593,50.572463 50.3051445,49.9938056 50.9182992,49.4123828 C51.1596031,49.1832013 51.3599373,48.9229092 51.4200029,48.5869145 C51.4790269,48.254031 51.5311068,47.9190733 51.564438,47.5830787 C51.5960332,47.2591827 51.4877068,47.17311 51.1703663,47.2401706 C50.8099729,47.3162188 50.4513156,47.4009088 50.0902278,47.4745372 C49.7100441,47.5519681 49.3930507,47.7317183 49.1323037,48.0182816 C48.7958671,48.3878066 48.4545697,48.7535291 48.1146612,49.119943 C47.7507958,49.5115911 47.3862361,49.9022021 47.0223707,50.2938502 C46.8227309,50.5088591 46.6942669,50.7511762 46.7269037,51.0564059 C46.7407917,51.2275143 46.7484301,51.3996597 46.7699565,51.5700767 Z" id="Goldberg_5_-path"></path>
                        <path d="M49.8409384,8.15383252 C49.6305353,7.958527 49.4211739,7.76080176 49.20591,7.57033567 C48.616712,7.04802304 48.0264724,6.52640174 47.4327608,6.00892854 C47.0053579,5.63663819 46.5171951,5.37772875 45.9627171,5.24049638 C45.6665557,5.16755927 45.3773383,5.06835098 45.0846489,4.98227828 C45.0072233,4.95946383 44.930145,4.93492101 44.8506362,4.92247677 C44.6971739,4.89897097 44.6200956,4.96153787 44.608638,5.11363421 C44.6044716,5.16444821 44.608638,5.21664491 44.61211,5.26815025 C44.636414,5.66671178 44.8055002,5.9937189 45.102356,6.25954181 C45.8828611,6.95711091 46.6598942,7.65675404 47.4403992,8.35397747 C47.7056599,8.5907638 48.010154,8.7629092 48.3486738,8.87283337 C48.8250319,9.02734942 49.3020844,9.1787544 49.779484,9.33015939 C49.8395496,9.34917143 49.9020455,9.36368972 49.9641943,9.37336858 C50.1447382,9.40205948 50.2388293,9.32843102 50.2565365,9.14798946 C50.2593141,9.11376779 50.2565365,9.07920044 50.2565365,9.07989179 C50.2666053,8.67960189 50.1002966,8.39476694 49.8409384,8.15383252 Z" id="Goldberg_5_-path"></path>
                        <path d="M29.2065094,6.82368094 C29.5373908,6.78323714 29.8689665,6.74383037 30.1995007,6.69854714 C30.6387084,6.63839995 31.0779161,6.5817095 31.5146934,6.5073897 C31.8393252,6.45208194 31.9469571,6.33455296 32.0028563,6.01480498 C32.044173,5.77767297 32.0781986,5.53950394 32.1063218,5.30064356 C32.1507634,4.92524216 32.0775042,4.8177377 31.7146805,4.71749239 C31.4535862,4.64559231 31.1914504,4.58060569 30.9293146,4.51354503 C30.4390685,4.38806556 29.9491697,4.26154906 29.4582292,4.13883498 C29.214495,4.07799644 28.9728439,4.09009501 28.7600105,4.23320384 C28.3024012,4.54119891 27.8458335,4.85092236 27.3996818,5.17516409 C27.17921,5.33486524 27.1674052,5.48627022 27.3548931,5.6808844 C27.669456,6.00720017 27.9965182,6.32176304 28.3273996,6.63183216 C28.4975275,6.79118763 28.7114025,6.85824829 28.9481928,6.84649539 C29.0342983,6.83889058 29.1204038,6.83439682 29.2065094,6.82368094 Z" id="Goldberg_5_-path"></path>
                        <path d="M54.0024747,17.183861 C54.0847611,17.3791665 54.1739914,17.5717066 54.2639161,17.7642468 C54.5757015,18.4345077 54.8899173,19.1040772 55.2030915,19.7739924 C55.3381522,20.0633211 55.5131409,20.324996 55.7679855,20.5230669 C56.0127613,20.7131873 56.2644812,20.8953572 56.5151594,21.0775271 C56.570017,21.1172796 56.6345961,21.1463162 56.6974393,21.1732787 C56.7936136,21.2147595 56.8800663,21.187797 56.9470759,21.1120945 C56.9842263,21.0695767 57.0126966,21.018417 57.0387366,20.967603 C57.2324741,20.5845968 57.2626805,20.1984795 57.100191,19.7902391 C56.7116745,18.8161312 56.3370459,17.8364925 55.9558206,16.8592736 C55.8579102,16.6086603 55.7068783,16.3943428 55.4989057,16.2228887 C55.2989186,16.0586938 55.0968484,15.8972643 54.8913061,15.7406742 C54.7406214,15.6259106 54.5875063,15.5128754 54.4260584,15.4143584 C54.246209,15.3047799 54.1236474,15.3479891 54.0753867,15.5515908 C53.9920587,15.9079802 53.931646,16.269209 53.8611644,16.6287094 C53.8740108,16.8274716 53.928174,17.0086045 54.0024747,17.183861 Z" id="Goldberg_5_-path"></path>
                        <path d="M56.3214219,42.7540201 C56.3123947,42.5836031 56.2394828,42.5255299 56.0756045,42.5642454 C56.0141501,42.5787637 55.9551262,42.6033065 55.897491,42.6288863 C55.5284177,42.7923899 55.2464915,43.0540647 55.026714,43.3890223 C54.4413352,44.2818969 53.856998,45.1758086 53.264328,46.0641894 C52.8931715,46.6210694 52.8098435,47.2564173 52.7313764,47.8948762 C52.7299876,47.9062834 52.7310292,47.9176907 52.7317236,47.9294436 C52.7400564,48.0919101 52.8119267,48.155514 52.9667778,48.1043543 C53.1018385,48.0594168 53.2313441,47.9906278 53.3514752,47.9149253 C53.5750718,47.7745818 53.7274925,47.5619926 53.8753996,47.3497491 C54.1180922,47.0009646 54.3597433,46.651143 54.5982695,46.2995931 C55.01109,45.6915534 55.4263409,45.0852421 55.8311759,44.472363 C56.1641404,43.9683711 56.2637868,43.3921334 56.3214219,42.8380188 C56.3214219,42.7885875 56.3217691,42.7713038 56.3214219,42.7540201 Z" id="Goldberg_5_-path"></path>
                        <path d="M56.9477703,25.4520251 C56.9064535,25.1104997 56.8679143,24.7686286 56.8227784,24.4274489 C56.759588,23.9500738 56.6950089,23.4726987 56.6245273,22.9963607 C56.5839049,22.7184392 56.4474554,22.4882206 56.227678,22.3119272 C56.0440093,22.1643246 55.859299,22.016722 55.6659088,21.8829464 C55.3996066,21.6987024 55.2669762,21.7453683 55.1711491,22.0523264 C55.0937236,22.2984459 55.0287972,22.5487135 54.9603989,22.7972527 C54.9298453,22.9078683 54.9069301,23.0205578 54.8742933,23.130482 C54.7635366,23.505192 54.7968678,23.8643468 54.9680373,24.2169337 C55.2645459,24.8260104 55.5520273,25.4388895 55.8433279,26.0500402 C55.8655486,26.0963605 55.8908942,26.1423351 55.9186702,26.1855443 C56.0388013,26.3718623 56.1662236,26.4174912 56.3748907,26.3355665 C56.486689,26.291666 56.5939737,26.2339385 56.6984809,26.1737914 C56.8904823,26.0638672 56.9908231,25.9014006 56.9703383,25.6746388 C56.9626999,25.5999734 56.9567975,25.5256536 56.9477703,25.4520251 Z" id="Goldberg_5_-path"></path>
                        <path d="M35.3686107,58.5423109 C35.1040445,58.529521 34.8391311,58.5163854 34.5745649,58.51362 C32.1271538,58.4870032 29.6804371,58.4624604 27.2330259,58.4375719 C26.0928219,58.4265103 24.9526179,58.4151031 23.8124139,58.4057699 C23.4707693,58.4030045 23.1357216,58.4576209 22.806229,58.5440393 C22.731581,58.5637427 22.6447811,58.5723845 22.6062419,58.6632966 C22.6604051,58.7542088 22.7555378,58.7697641 22.8419906,58.7936156 C23.298211,58.920132 23.7606811,59.0013653 24.2373864,58.9999826 C26.8292326,58.9930692 29.4203844,58.9923778 32.0122306,58.9882297 C32.8180813,58.9871927 33.6246263,58.9840816 34.430477,58.9802792 C34.7790655,58.9785509 35.1179325,58.9187494 35.4449947,58.7970723 C35.5179066,58.7697641 35.6015818,58.750752 35.6265802,58.64705 C35.5626954,58.5585576 35.4647851,58.5468047 35.3686107,58.5423109 Z" id="Goldberg_5_-path"></path>
                        <path d="M37.4240333,58.3311044 C37.559094,58.3034505 37.6948491,58.2785621 37.8288682,58.2467601 C38.5569461,58.074269 39.2822464,57.8896794 40.0124075,57.7292869 C40.5651496,57.6076098 41.0810884,57.4091932 41.5536273,57.1022352 C41.9296446,56.857844 42.2980236,56.6017 42.6691801,56.3500497 C42.7118857,56.3210131 42.7538969,56.2895568 42.7907,56.2539524 C42.8483352,56.1976077 42.9108312,56.1367691 42.8761112,56.0455113 C42.84278,55.9580559 42.7587577,55.9369699 42.6778601,55.9328218 C42.5865466,55.9286737 42.4924554,55.9290194 42.4028779,55.9459574 C41.7525727,56.0686715 41.1036564,56.1969163 40.4540456,56.3223958 C39.8710972,56.4347397 39.3263408,56.6466375 38.8169988,56.9473735 C38.3319607,57.2339368 37.8507418,57.5270679 37.367787,57.8177793 C37.3285534,57.8412851 37.2893198,57.8668649 37.2542526,57.8962472 C37.1702303,57.9653819 37.0681536,58.0341709 37.1073871,58.1627614 C37.1473151,58.2951544 37.2716126,58.3079443 37.3879246,58.3224626 C37.3990349,58.3238453 37.4108397,58.3228083 37.4229917,58.3228083 C37.4229917,58.3248823 37.4236861,58.3279934 37.4240333,58.3311044 Z" id="Goldberg_5_-path"></path>
                        <path d="M57.8796545,23.0755199 C57.9424976,23.6334369 58.0261728,24.1903169 58.0636703,24.7499623 C58.1289439,25.7226875 58.4212861,26.6248953 58.8580634,27.4880419 C58.881673,27.5340165 58.9077129,27.5789541 58.9368777,27.6214719 C59.0601336,27.8019135 59.1851256,27.8008765 59.3135895,27.6204349 C59.4271238,27.4614251 59.4493446,27.2809835 59.429207,27.0946655 C59.4021254,26.8381758 59.3660166,26.5830688 59.3330327,26.3272704 C59.2483159,25.6794783 59.1333928,25.0351429 59.1125608,24.380783 C59.0854792,23.5293892 58.7802906,22.7723642 58.3313613,22.0626966 C58.3129598,22.03366 58.2921278,22.0056605 58.2702542,21.9793893 C58.1358879,21.8203795 58.0185344,21.8348978 57.9338176,22.0250182 C57.8556977,22.200966 57.8334769,22.3886667 57.8317409,22.6465391 C57.8428513,22.7454017 57.8605585,22.9106336 57.8796545,23.0755199 Z" id="Goldberg_5_-path"></path>
                        <path d="M55.4308545,14.1962051 C55.3548178,14.0423804 55.2756562,13.8875186 55.1784403,13.7464839 C54.5572999,12.842202 53.9312988,11.9410312 53.305992,11.0402061 C52.9383075,10.5113257 52.4442422,10.1200233 51.9116378,9.77123876 C51.8776122,9.74911566 51.8418506,9.72975794 51.8050474,9.71385696 C51.6505435,9.64610496 51.5588828,9.69657329 51.5779788,9.86249656 C51.5949916,10.0139015 51.632142,10.1694546 51.6967211,10.306687 C51.7765771,10.4767583 51.885945,10.6347311 51.9949657,10.7889015 C52.5022246,11.5065197 53.029621,12.2103109 53.5202143,12.9393363 C53.9493532,13.5774495 54.5007064,14.0759107 55.1353875,14.4948669 C55.1930227,14.5325454 55.2527411,14.5695324 55.3162786,14.5940752 C55.4402289,14.6410868 55.5051553,14.5913099 55.5034193,14.4243496 C55.4871009,14.3693875 55.4707825,14.276747 55.4308545,14.1962051 Z" id="Goldberg_5_-path"></path>
                        <path d="M25.9685244,1.00703319 C26.3598185,1.00703319 26.7518071,1.00737886 27.1431012,1.00703319 C27.4951618,1.00668752 27.8503471,1.01325531 28.1902557,0.917849431 C28.8440328,0.73429681 29.4915604,0.5310408 30.1411711,0.334352586 C30.1845711,0.321216994 30.2265823,0.298402544 30.2640799,0.271785685 C30.344283,0.214058213 30.3446302,0.143195148 30.2592191,0.0965292278 C30.2001951,0.0643815936 30.1304079,0.0443325314 30.0633984,0.0356906942 C29.9609745,0.0225551017 29.8568145,0.0197897138 29.753349,0.0194440404 C28.889516,0.016332979 28.0253358,0.0132219176 27.1615028,0.0128762441 C26.7118791,0.0128762441 26.2622554,0.0294685715 25.8213117,0.125220127 C25.1946161,0.261415481 24.6047237,0.510991738 24.0023322,0.721506891 C23.960321,0.736370851 23.9196986,0.763333383 23.885673,0.793061302 C23.8360235,0.835579141 23.8391483,0.890541226 23.8929642,0.922343186 C23.9460858,0.9534538 24.0082346,0.977305271 24.0693417,0.985255761 C24.1887784,1.00081107 24.3099511,1.0094529 24.4307767,1.01014425 C24.9435907,1.01256397 25.4560576,1.01118127 25.9688716,1.01118127 C25.9685244,1.00979858 25.9685244,1.00841588 25.9685244,1.00703319 Z" id="Goldberg_5_-path"></path>
                        <path d="M59.5913493,29.5814406 C59.5535045,29.7608451 59.5160069,29.940941 59.4896197,30.1220739 C59.3934454,30.785767 59.3229639,31.4542995 59.2014439,32.1138445 C59.0740216,32.8083026 59.0181225,33.4999952 59.1087416,34.201021 C59.1417256,34.4568194 59.1750568,34.7129635 59.2156791,34.9677248 C59.2285255,35.0482668 59.2372055,35.1409073 59.3281719,35.1834251 C59.420527,35.1640674 59.4528166,35.0921673 59.4719126,35.0216499 C59.5073269,34.8889113 59.5385749,34.7544443 59.5552405,34.6182489 C59.64829,33.8671005 59.7361316,33.1152606 59.8257091,32.3634208 C59.8798723,31.9078231 59.9451458,31.4536082 59.9850738,30.9969735 C60.0263906,30.5310056 59.9805602,30.0684945 59.8645955,29.6142796 C59.8427219,29.5288982 59.8316115,29.4314183 59.7232852,29.3768019 C59.6375268,29.4279616 59.6073205,29.5033184 59.5913493,29.5814406 Z" id="Goldberg_5_-path"></path>
                        <path d="M37.6497132,0.881553715 C37.3962573,0.805159874 37.1417599,0.730494401 36.8855265,0.664816439 C36.1605734,0.478152757 35.4370091,0.288378013 34.7089312,0.115195596 C34.148898,-0.0182343696 33.5794904,-0.0289502477 33.008694,0.0481349397 C32.9451564,0.0567767769 32.8840492,0.0816652679 32.8215533,0.0989489422 C32.8194701,0.112084535 32.8180813,0.125220127 32.8159981,0.138701393 C32.8562733,0.165663925 32.8937708,0.1998856 32.937518,0.218206295 C33.0378587,0.260724134 33.1402827,0.301167932 33.2447898,0.332969892 C33.9895333,0.557311985 34.7401792,0.758493954 35.502977,0.909207594 C36.1661286,1.03987217 36.8355297,1.11073524 37.5129165,1.08204434 C37.6202012,1.07755058 37.7306107,1.07893328 37.8722682,0.993551924 C37.7764411,0.944811963 37.7163755,0.901948451 37.6497132,0.881553715 Z" id="Goldberg_5_-path"></path>
                        <path d="M44.5346844,55.1654266 C44.7048123,55.081428 44.8718154,54.9912072 45.0405545,54.9044432 C45.5363557,54.6493361 46.0307682,54.3907724 46.5283055,54.1405048 C46.8876572,53.9600632 47.1772218,53.7077215 47.3855417,53.3651591 C47.4324136,53.2873826 47.4994232,53.2009642 47.4438712,53.1117805 C47.3855417,53.0167202 47.2796457,53.0595838 47.1904154,53.0678799 C47.1796522,53.0689169 47.1678474,53.0706453 47.1563898,53.0734107 C46.7737757,53.1653598 46.4029663,53.2884196 46.0786818,53.5182925 C45.4683046,53.9514214 44.8999386,54.4357099 44.3527518,54.944887 C44.3072686,54.9874048 44.2652574,55.0378731 44.235051,55.0917982 C44.1850543,55.1809819 44.224635,55.2394008 44.3492798,55.2355984 C44.3958045,55.217969 44.4683693,55.1979199 44.5346844,55.1654266 Z" id="Goldberg_5_-path"></path>
                        <path d="M51.9814249,50.0352864 C51.9116378,50.081261 51.8314346,50.116174 51.7744939,50.1739015 C51.3821581,50.5759198 50.9946832,50.9824318 50.6068611,51.3885981 C50.5832515,51.4131409 50.5707523,51.4487453 50.5540867,51.4795103 C50.6335954,51.4608439 50.6915778,51.4259309 50.747477,51.3872154 C51.1724495,51.0968497 51.5474252,50.7525589 51.8665018,50.3498493 C51.9321225,50.2672333 52.0081593,50.1856544 52.0151033,50.0722735 C52.0029513,50.0598292 51.9921881,50.0477307 51.9814249,50.0352864 Z" id="Goldberg_5_-path"></path>
                    </g>
                </g>
            </g>
        </g>
    </g>
</svg>