<?xml version="1.0" encoding="UTF-8"?>
<svg width="59px" height="60px" viewBox="0 0 59 60" version="1.1" xmlns="http://www.w3.org/2000/svg" xmlns:xlink="http://www.w3.org/1999/xlink">
    <!-- Generator: Sketch 52.4 (67378) - http://www.bohemiancoding.com/sketch -->
    <title>saltstack_small</title>
    <desc>Created with Sketch.</desc>
    <g id="landing" stroke="none" stroke-width="1" fill="none" fill-rule="evenodd">
        <g transform="translate(-781.000000, -4194.000000)" fill="#231F1F" fill-rule="nonzero" id="Automation">
            <g transform="translate(0.000000, 3608.000000)">
                <g id="logos" transform="translate(637.000000, 586.000000)">
                    <g id="saltstack_small" transform="translate(144.000000, 0.000000)">
                        <path d="M58.3852471,8.47647233 L58.3827376,8.45114913 C58.3774905,8.39183354 58.3697338,8.33274609 58.3542205,8.2752556 C58.3407605,8.22506548 58.3213688,8.17784115 58.299924,8.13107309 L58.2839544,8.09206168 C58.2643346,8.03867765 58.2426616,7.9864343 58.215057,7.93852556 C58.1881369,7.89130122 58.1552852,7.84818335 58.1208365,7.8064343 L58.0959696,7.77403887 C58.064943,7.72955218 58.0323194,7.6864343 57.9928517,7.64673849 C57.9540684,7.60772708 57.910038,7.57350655 57.8644106,7.54111111 L57.8322433,7.51624419 C57.7914068,7.48156738 57.7492015,7.44871567 57.698327,7.41905788 L45.3422053,0.193734688 C44.886616,-0.0722729167 44.3258555,-0.063831852 43.8780228,0.215863965 L35.5610646,5.20635826 L26.9292776,0.344533166 C26.4980989,0.103848756 25.9644867,0.107042673 25.5365019,0.352974231 L0.744638783,14.5805027 L0.66365019,14.6281834 C0.625779468,14.6535065 0.590418251,14.6815674 0.555969582,14.7107689 L0.525855513,14.7344951 C0.485247148,14.7632404 0.446007605,14.7940389 0.411102662,14.8291719 C0.361368821,14.8793621 0.319391635,14.9357119 0.267148289,15.0105408 C0.238174905,15.0449894 0.211254753,15.0808069 0.188897338,15.1195902 C0.132319392,15.2181453 0.0869201521,15.3267385 0.0538403042,15.4440008 L0.0449429658,15.4793621 C0.0150570342,15.5970807 0,15.7134305 0,15.8256738 L0.265779468,44.5722899 C0.265779468,45.0817195 0.541368821,45.5537348 0.985095057,45.804229 L25.4968061,59.6311492 C25.5595437,59.6667386 25.6254753,59.6920617 25.7135361,59.7230884 C25.751635,59.7406549 25.7906464,59.7557119 25.8307985,59.7664344 C25.9492015,59.7976891 26.0707985,59.8136587 26.1919392,59.8136587 C26.3130798,59.8136587 26.4349049,59.7976891 26.5546768,59.7662062 C26.5977947,59.7547994 26.6395437,59.7379173 26.7082129,59.7087157 C26.7294297,59.7011872 26.7504183,59.6934306 26.771635,59.6852176 L26.8332319,59.6847614 L26.933384,59.6046853 L51.1936882,45.8014914 C51.638327,45.5484876 51.9123194,45.0735066 51.9084411,44.5617956 L51.9260076,30.2085637 C51.9225856,29.7801226 51.80327,29.2544952 51.4742966,28.990769 C51.4314068,28.9563203 51.0225856,28.5559401 50.7748289,28.3234686 L57.7106464,24.2097043 C58.1377186,23.9560161 58.4030418,23.4899325 58.4030418,22.9935066 L58.4030418,8.64255598 C58.4030418,8.59054077 58.3964259,8.54035065 58.3852471,8.47647233 Z M44.6534601,3.06734685 L54.1722433,8.63365864 L44.6215209,14.1372328 L35.1565779,8.55746092 L44.6534601,3.06734685 Z M45.2231179,31.4097043 L47.7456274,29.9147233 L47.8745247,30.1378412 L39.92327,34.8465865 L39.8655513,28.6930503 L43.8365019,31.4165484 L43.9074525,31.4578412 C43.959924,31.4849895 44.0169582,31.5071188 44.0908745,31.5335827 C44.131711,31.5522899 44.1730038,31.5689439 44.2142966,31.5798944 C44.4531559,31.6446853 44.6619011,31.6011112 44.9103422,31.5351796 C44.9504943,31.5244572 44.9890494,31.5087157 45.0476806,31.4838488 C45.1063118,31.4633165 45.1640304,31.4409591 45.2231179,31.4097043 Z M33.7409886,11.0995902 L35.1495057,12.0322138 L43.2141445,16.5906168 L43.216654,27.450845 C43.216654,27.450845 40.0653992,25.5956359 39.8655513,25.5730503 L39.8596198,22.8297043 C39.8596198,22.7817955 39.8539163,22.7357119 39.8427376,22.6629362 C39.8388593,22.6063583 39.8326996,22.5502366 39.8187833,22.4927461 L39.8037262,22.4423278 C39.7930038,22.4085636 39.7802281,22.37594 39.7660837,22.3435446 L39.7512548,22.3049894 C39.7334601,22.2536586 39.7136122,22.2034685 39.6921673,22.164229 L39.6752852,22.1338868 C39.6524715,22.0937347 39.6253232,22.0565484 39.5965779,22.0202746 L39.5749049,21.9903887 C39.5436502,21.9445332 39.5107985,21.9000465 39.4788593,21.8665104 L39.4530798,21.8389058 C39.4209125,21.8062822 39.3848669,21.7773088 39.3285171,21.734191 C39.2906464,21.699286 39.2511787,21.6662062 39.2076046,21.6383735 L33.7409886,18.5820237 L33.7409886,11.0995902 Z M24.7777186,55.9782214 L3.0939924,43.7464344 L3.0939924,18.5101605 L24.7777186,30.8345713 L24.7777186,55.9782214 Z M26.1846388,28.3809591 L4.30311787,15.837537 L26.2010646,3.09746092 L32.6721673,6.88179552 L31.6444106,7.53152936 C31.6028897,7.55753697 31.5659316,7.58765103 31.5082129,7.63784115 C31.4644106,7.67114913 31.4222053,7.70536967 31.3847909,7.7439248 C31.3480608,7.78156738 31.3161217,7.82217575 31.2855513,7.86415294 L31.2593156,7.8986016 C31.226692,7.94103506 31.1952091,7.98369666 31.1680608,8.03160541 C31.1427376,8.07586396 31.1224335,8.12240389 31.1034981,8.16985636 L31.0863878,8.21137727 C31.064943,8.26133925 31.0453232,8.3117575 31.0314068,8.36331643 C31.0177186,8.41396282 31.0097338,8.46552176 30.9987833,8.54787917 C30.9892015,8.59464723 30.9819011,8.64187157 30.9805323,8.69000845 L30.9387833,11.1285636 L25.5611407,14.5576891 C25.1418251,14.8129742 24.8881369,15.2587537 24.8826616,15.7501605 C24.8771863,16.240883 25.1210646,16.6919096 25.5346768,16.9570046 L35.590038,22.770845 L26.1846388,28.3809591 Z M31.0056274,14.5547233 L30.9337643,17.052594 L28.9676806,15.7953316 L31.0056274,14.5547233 Z M27.6061597,55.9681834 L27.6061597,30.8254458 L37.0742966,25.3455979 L37.063346,27.1043051 L37.063346,36.8934306 C37.063346,37.4014914 37.3377947,37.8728222 37.7785551,38.1228602 C38.22,38.3735827 38.7652471,38.3681074 39.2021293,38.1078032 L49.3701901,32.4486397 L49.4279087,43.3976131 L27.6061597,55.9681834 Z M55.5522433,21.990845 L46.0188593,27.537537 L46.0423574,16.5828602 L55.5748289,11.0895522 L55.5522433,21.990845 Z" id="Shape"></path>
                    </g>
                </g>
            </g>
        </g>
    </g>
</svg>